%TF.GenerationSoftware,KiCad,Pcbnew,8.0.8-rc1*%
%TF.CreationDate,2026-06-08T23:53:15-04:00*%
%TF.ProjectId,ECG-Biosensor-AD8232,4543472d-4269-46f7-9365-6e736f722d41,rev?*%
%TF.SameCoordinates,Original*%
%TF.FileFunction,Copper,L1,Top*%
%TF.FilePolarity,Positive*%
%FSLAX46Y46*%
G04 Gerber Fmt 4.6, Leading zero omitted, Abs format (unit mm)*
G04 Created by KiCad (PCBNEW 8.0.8-rc1) date 2026-06-08 23:53:15*
%MOMM*%
%LPD*%
G01*
G04 APERTURE LIST*
%TA.AperFunction,SMDPad,CuDef*%
%ADD10R,0.985000X0.280000*%
%TD*%
%TA.AperFunction,SMDPad,CuDef*%
%ADD11R,0.280000X0.985000*%
%TD*%
%TA.AperFunction,SMDPad,CuDef*%
%ADD12R,2.150000X2.150000*%
%TD*%
%TA.AperFunction,SMDPad,CuDef*%
%ADD13R,0.800000X0.900000*%
%TD*%
%TA.AperFunction,SMDPad,CuDef*%
%ADD14R,0.806000X0.864000*%
%TD*%
%TA.AperFunction,SMDPad,CuDef*%
%ADD15R,1.410000X1.350000*%
%TD*%
%TA.AperFunction,ComponentPad*%
%ADD16C,1.200000*%
%TD*%
%TA.AperFunction,ComponentPad*%
%ADD17O,2.000000X1.000000*%
%TD*%
%TA.AperFunction,ViaPad*%
%ADD18C,0.600000*%
%TD*%
%TA.AperFunction,Conductor*%
%ADD19C,0.200000*%
%TD*%
G04 APERTURE END LIST*
D10*
%TO.P,U1,1*%
%TO.N,N/C*%
X46130000Y-44000000D03*
%TO.P,U1,2*%
%TO.N,ECG_INP*%
X46130000Y-44500000D03*
%TO.P,U1,3*%
%TO.N,ECG_INN*%
X46130000Y-45000000D03*
%TO.P,U1,4*%
%TO.N,RLD*%
X46130000Y-45500000D03*
%TO.P,U1,5*%
X46130000Y-46000000D03*
D11*
%TO.P,U1,6*%
%TO.N,N/C*%
X47000000Y-46870000D03*
%TO.P,U1,7*%
X47500000Y-46870000D03*
%TO.P,U1,8*%
%TO.N,REFOUT*%
X48000000Y-46870000D03*
%TO.P,U1,9*%
%TO.N,N/C*%
X48500000Y-46870000D03*
%TO.P,U1,10*%
%TO.N,ECG_OUT*%
X49000000Y-46870000D03*
D10*
%TO.P,U1,11*%
%TO.N,LO_MINUS*%
X49870000Y-46000000D03*
%TO.P,U1,12*%
%TO.N,LO_PLUS*%
X49870000Y-45500000D03*
%TO.P,U1,13*%
%TO.N,VCC*%
X49870000Y-45000000D03*
%TO.P,U1,14*%
%TO.N,GND*%
X49870000Y-44500000D03*
%TO.P,U1,15*%
%TO.N,N/C*%
X49870000Y-44000000D03*
D11*
%TO.P,U1,16*%
%TO.N,VCC*%
X49000000Y-43130000D03*
%TO.P,U1,17*%
%TO.N,REFIN*%
X48500000Y-43130000D03*
%TO.P,U1,18*%
%TO.N,IAOUT*%
X48000000Y-43130000D03*
%TO.P,U1,19*%
%TO.N,N/C*%
X47500000Y-43130000D03*
%TO.P,U1,20*%
%TO.N,VCC*%
X47000000Y-43130000D03*
D12*
%TO.P,U1,21*%
%TO.N,GND*%
X48000000Y-45000000D03*
%TD*%
D13*
%TO.P,C3,1*%
%TO.N,VCC*%
X59300000Y-30000000D03*
%TO.P,C3,2*%
%TO.N,GND*%
X60700000Y-30000000D03*
%TD*%
D14*
%TO.P,R1,1*%
%TO.N,VCC*%
X41250000Y-58000000D03*
%TO.P,R1,2*%
%TO.N,REFIN*%
X42750000Y-58000000D03*
%TD*%
D15*
%TO.P,C2,1*%
%TO.N,VCC*%
X53000000Y-30000000D03*
%TO.P,C2,2*%
%TO.N,GND*%
X55000000Y-30000000D03*
%TD*%
D14*
%TO.P,R2,1*%
%TO.N,REFIN*%
X47250000Y-58000000D03*
%TO.P,R2,2*%
%TO.N,GND*%
X48750000Y-58000000D03*
%TD*%
D16*
%TO.P,J1,*%
%TO.N,*%
X24900000Y-55000000D03*
X31900000Y-55000000D03*
D17*
%TO.P,J1,2*%
%TO.N,J1_SLEEVE*%
X34600000Y-57300000D03*
%TO.P,J1,3*%
%TO.N,ECG_INN*%
X29500000Y-52700000D03*
%TO.P,J1,4*%
%TO.N,RLD*%
X33500000Y-52700000D03*
%TO.P,J1,5*%
%TO.N,ECG_INP*%
X26500000Y-52700000D03*
%TD*%
D15*
%TO.P,C1,1*%
%TO.N,VCC*%
X47000000Y-30000000D03*
%TO.P,C1,2*%
%TO.N,GND*%
X49000000Y-30000000D03*
%TD*%
D18*
%TO.N,VCC*%
X38203900Y-37335800D03*
%TO.N,RLD*%
X39250800Y-41171100D03*
%TO.N,LO_MINUS*%
X48095800Y-37112900D03*
X50160400Y-51912700D03*
%TD*%
D19*
%TO.N,VCC*%
X67006700Y-32818200D02*
X62489100Y-37335800D01*
X47250000Y-52000000D02*
X44470000Y-52000000D01*
X64000000Y-31023300D02*
X66883400Y-31023300D01*
X64000000Y-32000000D02*
X64000000Y-31023300D01*
X47835900Y-36499900D02*
X48373200Y-36499900D01*
X59000000Y-32000000D02*
X59000000Y-31023300D01*
X32470000Y-40000000D02*
X32470000Y-41063700D01*
X59000000Y-31023300D02*
X64000000Y-31023300D01*
X33533700Y-41063700D02*
X32470000Y-41063700D01*
X62489100Y-37335800D02*
X49000000Y-37335800D01*
X67006700Y-31146600D02*
X67006700Y-32818200D01*
X38203900Y-37335800D02*
X47000000Y-37335800D01*
X48373200Y-36499900D02*
X49000000Y-37126700D01*
X66883400Y-31023300D02*
X67006700Y-31146600D01*
X47000000Y-37335800D02*
X47835900Y-36499900D01*
X47000000Y-38130000D02*
X47000000Y-37732900D01*
X49000000Y-37126700D02*
X49000000Y-37335800D01*
X44470000Y-52000000D02*
X33533700Y-41063700D01*
X49000000Y-38130000D02*
X49000000Y-37335800D01*
X47000000Y-37732900D02*
X47000000Y-37335800D01*
%TO.N,GND*%
X48267600Y-52779400D02*
X48045300Y-52557100D01*
X54045300Y-52528500D02*
X53794400Y-52779400D01*
X61000000Y-32875800D02*
X61000000Y-32976700D01*
X35010000Y-39678900D02*
X35010000Y-40000000D01*
X61000000Y-32000000D02*
X61000000Y-32875800D01*
X53794400Y-52779400D02*
X48267600Y-52779400D01*
X54750000Y-52000000D02*
X54045300Y-52000000D01*
X48045300Y-51519900D02*
X37870600Y-41345200D01*
X41712200Y-32976700D02*
X35010000Y-39678900D01*
X54045300Y-52000000D02*
X54045300Y-52528500D01*
X66000000Y-32000000D02*
X66000000Y-32976700D01*
X61000000Y-32976700D02*
X66000000Y-32976700D01*
X36355200Y-41345200D02*
X35010000Y-40000000D01*
X37870600Y-41345200D02*
X36355200Y-41345200D01*
X48045300Y-52557100D02*
X48045300Y-51519900D01*
X61000000Y-32976700D02*
X41712200Y-32976700D01*
%TO.N,RLD*%
X39250800Y-41171100D02*
X45958900Y-41171100D01*
X45958900Y-41171100D02*
X46130000Y-41000000D01*
%TO.N,ECG_OUT*%
X37550000Y-40000000D02*
X37550000Y-40321100D01*
X37550000Y-40321100D02*
X39893100Y-42664200D01*
X49000000Y-41870000D02*
X49000000Y-42664200D01*
X39893100Y-42664200D02*
X49000000Y-42664200D01*
%TO.N,LO_MINUS*%
X48750000Y-52000000D02*
X50073100Y-52000000D01*
X48500000Y-37335800D02*
X48318700Y-37335800D01*
X50073100Y-52000000D02*
X53250000Y-52000000D01*
X48318700Y-37335800D02*
X48095800Y-37112900D01*
X48500000Y-38130000D02*
X48500000Y-37335800D01*
X50073100Y-52000000D02*
X50160400Y-51912700D01*
%TD*%
M02*
