%TF.GenerationSoftware,KiCad,Pcbnew,10.0.3*%
%TF.CreationDate,2026-06-10T22:05:53-04:00*%
%TF.ProjectId,ECG-Biosensor-AD8232-final,4543472d-4269-46f7-9365-6e736f722d41,rev?*%
%TF.SameCoordinates,Original*%
%TF.FileFunction,Legend,Top*%
%TF.FilePolarity,Positive*%
%FSLAX46Y46*%
G04 Gerber Fmt 4.6, Leading zero omitted, Abs format (unit mm)*
G04 Created by KiCad (PCBNEW 10.0.3) date 2026-06-10 22:05:53*
%MOMM*%
%LPD*%
G01*
G04 APERTURE LIST*
%ADD10C,0.150000*%
%ADD11C,0.060000*%
%ADD12C,0.250000*%
G04 APERTURE END LIST*
D10*
X47238095Y-38587819D02*
X47238095Y-39397342D01*
X47238095Y-39397342D02*
X47285714Y-39492580D01*
X47285714Y-39492580D02*
X47333333Y-39540200D01*
X47333333Y-39540200D02*
X47428571Y-39587819D01*
X47428571Y-39587819D02*
X47619047Y-39587819D01*
X47619047Y-39587819D02*
X47714285Y-39540200D01*
X47714285Y-39540200D02*
X47761904Y-39492580D01*
X47761904Y-39492580D02*
X47809523Y-39397342D01*
X47809523Y-39397342D02*
X47809523Y-38587819D01*
X48809523Y-39587819D02*
X48238095Y-39587819D01*
X48523809Y-39587819D02*
X48523809Y-38587819D01*
X48523809Y-38587819D02*
X48428571Y-38730676D01*
X48428571Y-38730676D02*
X48333333Y-38825914D01*
X48333333Y-38825914D02*
X48238095Y-38873533D01*
X52833333Y-34359580D02*
X52785714Y-34407200D01*
X52785714Y-34407200D02*
X52642857Y-34454819D01*
X52642857Y-34454819D02*
X52547619Y-34454819D01*
X52547619Y-34454819D02*
X52404762Y-34407200D01*
X52404762Y-34407200D02*
X52309524Y-34311961D01*
X52309524Y-34311961D02*
X52261905Y-34216723D01*
X52261905Y-34216723D02*
X52214286Y-34026247D01*
X52214286Y-34026247D02*
X52214286Y-33883390D01*
X52214286Y-33883390D02*
X52261905Y-33692914D01*
X52261905Y-33692914D02*
X52309524Y-33597676D01*
X52309524Y-33597676D02*
X52404762Y-33502438D01*
X52404762Y-33502438D02*
X52547619Y-33454819D01*
X52547619Y-33454819D02*
X52642857Y-33454819D01*
X52642857Y-33454819D02*
X52785714Y-33502438D01*
X52785714Y-33502438D02*
X52833333Y-33550057D01*
X53166667Y-33454819D02*
X53785714Y-33454819D01*
X53785714Y-33454819D02*
X53452381Y-33835771D01*
X53452381Y-33835771D02*
X53595238Y-33835771D01*
X53595238Y-33835771D02*
X53690476Y-33883390D01*
X53690476Y-33883390D02*
X53738095Y-33931009D01*
X53738095Y-33931009D02*
X53785714Y-34026247D01*
X53785714Y-34026247D02*
X53785714Y-34264342D01*
X53785714Y-34264342D02*
X53738095Y-34359580D01*
X53738095Y-34359580D02*
X53690476Y-34407200D01*
X53690476Y-34407200D02*
X53595238Y-34454819D01*
X53595238Y-34454819D02*
X53309524Y-34454819D01*
X53309524Y-34454819D02*
X53214286Y-34407200D01*
X53214286Y-34407200D02*
X53166667Y-34359580D01*
X74666666Y-42454819D02*
X74666666Y-43169104D01*
X74666666Y-43169104D02*
X74619047Y-43311961D01*
X74619047Y-43311961D02*
X74523809Y-43407200D01*
X74523809Y-43407200D02*
X74380952Y-43454819D01*
X74380952Y-43454819D02*
X74285714Y-43454819D01*
X75095238Y-42550057D02*
X75142857Y-42502438D01*
X75142857Y-42502438D02*
X75238095Y-42454819D01*
X75238095Y-42454819D02*
X75476190Y-42454819D01*
X75476190Y-42454819D02*
X75571428Y-42502438D01*
X75571428Y-42502438D02*
X75619047Y-42550057D01*
X75619047Y-42550057D02*
X75666666Y-42645295D01*
X75666666Y-42645295D02*
X75666666Y-42740533D01*
X75666666Y-42740533D02*
X75619047Y-42883390D01*
X75619047Y-42883390D02*
X75047619Y-43454819D01*
X75047619Y-43454819D02*
X75666666Y-43454819D01*
X41833333Y-54454819D02*
X41500000Y-53978628D01*
X41261905Y-54454819D02*
X41261905Y-53454819D01*
X41261905Y-53454819D02*
X41642857Y-53454819D01*
X41642857Y-53454819D02*
X41738095Y-53502438D01*
X41738095Y-53502438D02*
X41785714Y-53550057D01*
X41785714Y-53550057D02*
X41833333Y-53645295D01*
X41833333Y-53645295D02*
X41833333Y-53788152D01*
X41833333Y-53788152D02*
X41785714Y-53883390D01*
X41785714Y-53883390D02*
X41738095Y-53931009D01*
X41738095Y-53931009D02*
X41642857Y-53978628D01*
X41642857Y-53978628D02*
X41261905Y-53978628D01*
X42785714Y-54454819D02*
X42214286Y-54454819D01*
X42500000Y-54454819D02*
X42500000Y-53454819D01*
X42500000Y-53454819D02*
X42404762Y-53597676D01*
X42404762Y-53597676D02*
X42309524Y-53692914D01*
X42309524Y-53692914D02*
X42214286Y-53740533D01*
X47833333Y-34359580D02*
X47785714Y-34407200D01*
X47785714Y-34407200D02*
X47642857Y-34454819D01*
X47642857Y-34454819D02*
X47547619Y-34454819D01*
X47547619Y-34454819D02*
X47404762Y-34407200D01*
X47404762Y-34407200D02*
X47309524Y-34311961D01*
X47309524Y-34311961D02*
X47261905Y-34216723D01*
X47261905Y-34216723D02*
X47214286Y-34026247D01*
X47214286Y-34026247D02*
X47214286Y-33883390D01*
X47214286Y-33883390D02*
X47261905Y-33692914D01*
X47261905Y-33692914D02*
X47309524Y-33597676D01*
X47309524Y-33597676D02*
X47404762Y-33502438D01*
X47404762Y-33502438D02*
X47547619Y-33454819D01*
X47547619Y-33454819D02*
X47642857Y-33454819D01*
X47642857Y-33454819D02*
X47785714Y-33502438D01*
X47785714Y-33502438D02*
X47833333Y-33550057D01*
X48214286Y-33550057D02*
X48261905Y-33502438D01*
X48261905Y-33502438D02*
X48357143Y-33454819D01*
X48357143Y-33454819D02*
X48595238Y-33454819D01*
X48595238Y-33454819D02*
X48690476Y-33502438D01*
X48690476Y-33502438D02*
X48738095Y-33550057D01*
X48738095Y-33550057D02*
X48785714Y-33645295D01*
X48785714Y-33645295D02*
X48785714Y-33740533D01*
X48785714Y-33740533D02*
X48738095Y-33883390D01*
X48738095Y-33883390D02*
X48166667Y-34454819D01*
X48166667Y-34454819D02*
X48785714Y-34454819D01*
X47833333Y-54454819D02*
X47500000Y-53978628D01*
X47261905Y-54454819D02*
X47261905Y-53454819D01*
X47261905Y-53454819D02*
X47642857Y-53454819D01*
X47642857Y-53454819D02*
X47738095Y-53502438D01*
X47738095Y-53502438D02*
X47785714Y-53550057D01*
X47785714Y-53550057D02*
X47833333Y-53645295D01*
X47833333Y-53645295D02*
X47833333Y-53788152D01*
X47833333Y-53788152D02*
X47785714Y-53883390D01*
X47785714Y-53883390D02*
X47738095Y-53931009D01*
X47738095Y-53931009D02*
X47642857Y-53978628D01*
X47642857Y-53978628D02*
X47261905Y-53978628D01*
X48214286Y-53550057D02*
X48261905Y-53502438D01*
X48261905Y-53502438D02*
X48357143Y-53454819D01*
X48357143Y-53454819D02*
X48595238Y-53454819D01*
X48595238Y-53454819D02*
X48690476Y-53502438D01*
X48690476Y-53502438D02*
X48738095Y-53550057D01*
X48738095Y-53550057D02*
X48785714Y-53645295D01*
X48785714Y-53645295D02*
X48785714Y-53740533D01*
X48785714Y-53740533D02*
X48738095Y-53883390D01*
X48738095Y-53883390D02*
X48166667Y-54454819D01*
X48166667Y-54454819D02*
X48785714Y-54454819D01*
X30216666Y-48154819D02*
X30216666Y-48869104D01*
X30216666Y-48869104D02*
X30169047Y-49011961D01*
X30169047Y-49011961D02*
X30073809Y-49107200D01*
X30073809Y-49107200D02*
X29930952Y-49154819D01*
X29930952Y-49154819D02*
X29835714Y-49154819D01*
X31216666Y-49154819D02*
X30645238Y-49154819D01*
X30930952Y-49154819D02*
X30930952Y-48154819D01*
X30930952Y-48154819D02*
X30835714Y-48297676D01*
X30835714Y-48297676D02*
X30740476Y-48392914D01*
X30740476Y-48392914D02*
X30645238Y-48440533D01*
X42833333Y-34359580D02*
X42785714Y-34407200D01*
X42785714Y-34407200D02*
X42642857Y-34454819D01*
X42642857Y-34454819D02*
X42547619Y-34454819D01*
X42547619Y-34454819D02*
X42404762Y-34407200D01*
X42404762Y-34407200D02*
X42309524Y-34311961D01*
X42309524Y-34311961D02*
X42261905Y-34216723D01*
X42261905Y-34216723D02*
X42214286Y-34026247D01*
X42214286Y-34026247D02*
X42214286Y-33883390D01*
X42214286Y-33883390D02*
X42261905Y-33692914D01*
X42261905Y-33692914D02*
X42309524Y-33597676D01*
X42309524Y-33597676D02*
X42404762Y-33502438D01*
X42404762Y-33502438D02*
X42547619Y-33454819D01*
X42547619Y-33454819D02*
X42642857Y-33454819D01*
X42642857Y-33454819D02*
X42785714Y-33502438D01*
X42785714Y-33502438D02*
X42833333Y-33550057D01*
X43785714Y-34454819D02*
X43214286Y-34454819D01*
X43500000Y-34454819D02*
X43500000Y-33454819D01*
X43500000Y-33454819D02*
X43404762Y-33597676D01*
X43404762Y-33597676D02*
X43309524Y-33692914D01*
X43309524Y-33692914D02*
X43214286Y-33740533D01*
%TO.C,U1*%
X45920000Y-42920000D02*
X45920000Y-43670000D01*
X45920000Y-47080000D02*
X45920000Y-46330000D01*
X46670000Y-42920000D02*
X45920000Y-42920000D01*
X46670000Y-47080000D02*
X45920000Y-47080000D01*
X49330000Y-42920000D02*
X50080000Y-42920000D01*
X49330000Y-47080000D02*
X50080000Y-47080000D01*
X50080000Y-42920000D02*
X50080000Y-43670000D01*
X50080000Y-47080000D02*
X50080000Y-46330000D01*
X45420000Y-44000000D02*
G75*
G02*
X45260000Y-44000000I-80000J0D01*
G01*
X45260000Y-44000000D02*
G75*
G02*
X45420000Y-44000000I80000J0D01*
G01*
D11*
X46030000Y-43000000D02*
G75*
G02*
X45970000Y-43000000I-30000J0D01*
G01*
X45970000Y-43000000D02*
G75*
G02*
X46030000Y-43000000I30000J0D01*
G01*
%TO.C,C3*%
D12*
X51610000Y-38400000D02*
X51610000Y-37600000D01*
X52720000Y-37290000D02*
X51920000Y-37290000D01*
X52720000Y-38710000D02*
X51920000Y-38710000D01*
X53280000Y-37290000D02*
X54080000Y-37290000D01*
X53280000Y-38710000D02*
X54080000Y-38710000D01*
X54390000Y-37600000D02*
X54390000Y-38400000D01*
X51610000Y-37600000D02*
G75*
G02*
X51920000Y-37290000I310000J0D01*
G01*
X51920000Y-38710000D02*
G75*
G02*
X51610000Y-38400000I0J310000D01*
G01*
X54080000Y-37290000D02*
G75*
G02*
X54390000Y-37600000I0J-310000D01*
G01*
X54390000Y-38400000D02*
G75*
G02*
X54080000Y-38710000I-310000J0D01*
G01*
D11*
X52230000Y-38400000D02*
G75*
G02*
X52170000Y-38400000I-30000J0D01*
G01*
X52170000Y-38400000D02*
G75*
G02*
X52230000Y-38400000I30000J0D01*
G01*
%TO.C,R1*%
D10*
X40610000Y-57340000D02*
X41570000Y-57340000D01*
X40610000Y-58660000D02*
X40610000Y-57340000D01*
X41570000Y-58660000D02*
X40610000Y-58660000D01*
X42430000Y-58660000D02*
X43390000Y-58660000D01*
X43390000Y-57340000D02*
X42430000Y-57340000D01*
X43390000Y-58660000D02*
X43390000Y-57340000D01*
D11*
X41230000Y-58400000D02*
G75*
G02*
X41170000Y-58400000I-30000J0D01*
G01*
X41170000Y-58400000D02*
G75*
G02*
X41230000Y-58400000I30000J0D01*
G01*
%TO.C,C2*%
D10*
X46040000Y-38750000D02*
X46040000Y-37250000D01*
X46190000Y-37100000D02*
X47600000Y-37100000D01*
X47600000Y-38900000D02*
X46190000Y-38900000D01*
X48400000Y-38900000D02*
X49810000Y-38900000D01*
X49810000Y-37100000D02*
X48400000Y-37100000D01*
X49960000Y-38750000D02*
X49960000Y-37250000D01*
X46040000Y-37250000D02*
G75*
G02*
X46190000Y-37100000I150000J0D01*
G01*
X46190000Y-38900000D02*
G75*
G02*
X46040000Y-38750000I0J150000D01*
G01*
X49810000Y-37100000D02*
G75*
G02*
X49960000Y-37250000I0J-150000D01*
G01*
X49960000Y-38750000D02*
G75*
G02*
X49810000Y-38900000I-150000J0D01*
G01*
D11*
X47030000Y-38630000D02*
G75*
G02*
X46970000Y-38630000I-30000J0D01*
G01*
X46970000Y-38630000D02*
G75*
G02*
X47030000Y-38630000I30000J0D01*
G01*
%TO.C,R2*%
D10*
X46610000Y-57340000D02*
X47570000Y-57340000D01*
X46610000Y-58660000D02*
X46610000Y-57340000D01*
X47570000Y-58660000D02*
X46610000Y-58660000D01*
X48430000Y-58660000D02*
X49390000Y-58660000D01*
X49390000Y-57340000D02*
X48430000Y-57340000D01*
X49390000Y-58660000D02*
X49390000Y-57340000D01*
D11*
X47230000Y-58400000D02*
G75*
G02*
X47170000Y-58400000I-30000J0D01*
G01*
X47170000Y-58400000D02*
G75*
G02*
X47230000Y-58400000I30000J0D01*
G01*
%TO.C,J1*%
D12*
X21300000Y-51950000D02*
X21300000Y-58050000D01*
X21300000Y-58050000D02*
X33670000Y-58050000D01*
X23390000Y-51950000D02*
X23390000Y-58050000D01*
X35330000Y-58050000D02*
X35690000Y-58050000D01*
X35690000Y-51950000D02*
X21300000Y-51950000D01*
X35690000Y-56880000D02*
X35690000Y-51950000D01*
X35690000Y-58050000D02*
X35690000Y-57720000D01*
%TO.C,C1*%
D10*
X41040000Y-38750000D02*
X41040000Y-37250000D01*
X41190000Y-37100000D02*
X42600000Y-37100000D01*
X42600000Y-38900000D02*
X41190000Y-38900000D01*
X43400000Y-38900000D02*
X44810000Y-38900000D01*
X44810000Y-37100000D02*
X43400000Y-37100000D01*
X44960000Y-38750000D02*
X44960000Y-37250000D01*
X41040000Y-37250000D02*
G75*
G02*
X41190000Y-37100000I150000J0D01*
G01*
X41190000Y-38900000D02*
G75*
G02*
X41040000Y-38750000I0J150000D01*
G01*
X44810000Y-37100000D02*
G75*
G02*
X44960000Y-37250000I0J-150000D01*
G01*
X44960000Y-38750000D02*
G75*
G02*
X44810000Y-38900000I-150000J0D01*
G01*
D11*
X42030000Y-38630000D02*
G75*
G02*
X41970000Y-38630000I-30000J0D01*
G01*
X41970000Y-38630000D02*
G75*
G02*
X42030000Y-38630000I30000J0D01*
G01*
%TD*%
M02*
