%TF.GenerationSoftware,KiCad,Pcbnew,10.0.3*%
%TF.CreationDate,2026-06-10T22:05:53-04:00*%
%TF.ProjectId,ECG-Biosensor-AD8232-final,4543472d-4269-46f7-9365-6e736f722d41,rev?*%
%TF.SameCoordinates,Original*%
%TF.FileFunction,Soldermask,Top*%
%TF.FilePolarity,Negative*%
%FSLAX46Y46*%
G04 Gerber Fmt 4.6, Leading zero omitted, Abs format (unit mm)*
G04 Created by KiCad (PCBNEW 10.0.3) date 2026-06-10 22:05:53*
%MOMM*%
%LPD*%
G01*
G04 APERTURE LIST*
%ADD10R,0.985000X0.280000*%
%ADD11R,0.280000X0.985000*%
%ADD12R,2.150000X2.150000*%
%ADD13R,0.800000X0.900000*%
%ADD14R,1.700000X1.700000*%
%ADD15C,1.700000*%
%ADD16R,0.806000X0.864000*%
%ADD17R,1.410000X1.350000*%
%ADD18C,1.200000*%
%ADD19O,2.000000X1.000000*%
G04 APERTURE END LIST*
D10*
%TO.C,U1*%
X46130000Y-44000000D03*
X46130000Y-44500000D03*
X46130000Y-45000000D03*
X46130000Y-45500000D03*
X46130000Y-46000000D03*
D11*
X47000000Y-46870000D03*
X47500000Y-46870000D03*
X48000000Y-46870000D03*
X48500000Y-46870000D03*
X49000000Y-46870000D03*
D10*
X49870000Y-46000000D03*
X49870000Y-45500000D03*
X49870000Y-45000000D03*
X49870000Y-44500000D03*
X49870000Y-44000000D03*
D11*
X49000000Y-43130000D03*
X48500000Y-43130000D03*
X48000000Y-43130000D03*
X47500000Y-43130000D03*
X47000000Y-43130000D03*
D12*
X48000000Y-45000000D03*
%TD*%
D13*
%TO.C,C3*%
X52300000Y-38000000D03*
X53700000Y-38000000D03*
%TD*%
D14*
%TO.C,J2*%
X75000000Y-45000000D03*
D15*
X75000000Y-47540000D03*
X75000000Y-50080000D03*
X75000000Y-52620000D03*
X75000000Y-55160000D03*
X75000000Y-57700000D03*
X75000000Y-60240000D03*
X75000000Y-62780000D03*
X75000000Y-65320000D03*
%TD*%
D16*
%TO.C,R1*%
X41250000Y-58000000D03*
X42750000Y-58000000D03*
%TD*%
D17*
%TO.C,C2*%
X47000000Y-38000000D03*
X49000000Y-38000000D03*
%TD*%
D16*
%TO.C,R2*%
X47250000Y-58000000D03*
X48750000Y-58000000D03*
%TD*%
D18*
%TO.C,J1*%
X24900000Y-55000000D03*
X31900000Y-55000000D03*
D19*
X34600000Y-57300000D03*
X29500000Y-52700000D03*
X33500000Y-52700000D03*
X26500000Y-52700000D03*
%TD*%
D17*
%TO.C,C1*%
X42000000Y-38000000D03*
X44000000Y-38000000D03*
%TD*%
M02*
