%TF.GenerationSoftware,KiCad,Pcbnew,10.0.3*%
%TF.CreationDate,2026-06-10T22:06:19-04:00*%
%TF.ProjectId,ECG-Biosensor-AD8232-final,4543472d-4269-46f7-9365-6e736f722d41,rev?*%
%TF.SameCoordinates,Original*%
%TF.FileFunction,Drillmap*%
%TF.FilePolarity,Positive*%
%FSLAX45Y45*%
G04 Gerber Fmt 4.5, Leading zero omitted, Abs format (unit mm)*
G04 Created by KiCad (PCBNEW 10.0.3) date 2026-06-10 22:06:19*
%MOMM*%
%LPD*%
G01*
G04 APERTURE LIST*
%ADD10C,0.050000*%
%ADD11C,0.200000*%
%ADD12C,0.100000*%
%ADD13C,0.120000*%
G04 APERTURE END LIST*
D10*
X2000000Y-1350000D02*
X16000000Y-1350000D01*
X2000000Y-7000000D02*
X2000000Y-1350000D01*
X16000000Y-1350000D02*
X16000000Y-7000000D01*
X16000000Y-7000000D02*
X2000000Y-7000000D01*
D11*
D12*
X2630000Y-4430000D02*
X2670000Y-4470000D01*
X2670000Y-4430000D02*
X2630000Y-4470000D01*
X2930000Y-4480000D02*
X2970000Y-4520000D01*
X2970000Y-4480000D02*
X2930000Y-4520000D01*
X3330000Y-4530000D02*
X3370000Y-4570000D01*
X3370000Y-4530000D02*
X3330000Y-4570000D01*
X4255000Y-5780000D02*
X4295000Y-5820000D01*
X4295000Y-5780000D02*
X4255000Y-5820000D01*
X4593000Y-4430000D02*
X4633000Y-4470000D01*
X4633000Y-4430000D02*
X4593000Y-4470000D01*
X4593000Y-4480000D02*
X4633000Y-4520000D01*
X4633000Y-4480000D02*
X4593000Y-4520000D01*
X4593000Y-4530000D02*
X4633000Y-4570000D01*
X4633000Y-4530000D02*
X4593000Y-4570000D01*
X4705000Y-5780000D02*
X4745000Y-5820000D01*
X4745000Y-5780000D02*
X4705000Y-5820000D01*
X4780000Y-4293000D02*
X4820000Y-4333000D01*
X4820000Y-4293000D02*
X4780000Y-4333000D01*
X4830000Y-4293000D02*
X4870000Y-4333000D01*
X4870000Y-4293000D02*
X4830000Y-4333000D01*
X7480000Y-6258000D02*
X7520000Y-6298000D01*
X7520000Y-6258000D02*
X7480000Y-6298000D01*
X2675001Y-5270000D02*
G75*
G02*
X2624999Y-5270000I-25001J0D01*
G01*
X2624999Y-5270000D02*
G75*
G02*
X2675001Y-5270000I25001J0D01*
G01*
X2600001Y-5295001D02*
X2699999Y-5295001D01*
X2699999Y-5244999D02*
G75*
G02*
X2699999Y-5295001I0J-25001D01*
G01*
X2699999Y-5244999D02*
X2600001Y-5244999D01*
X2600001Y-5244999D02*
G75*
G03*
X2600001Y-5295001I0J-25001D01*
G01*
X2975001Y-5270000D02*
G75*
G02*
X2924999Y-5270000I-25001J0D01*
G01*
X2924999Y-5270000D02*
G75*
G02*
X2975001Y-5270000I25001J0D01*
G01*
X2900001Y-5295001D02*
X2999999Y-5295001D01*
X2999999Y-5244999D02*
G75*
G02*
X2999999Y-5295001I0J-25001D01*
G01*
X2999999Y-5244999D02*
X2900001Y-5244999D01*
X2900001Y-5244999D02*
G75*
G03*
X2900001Y-5295001I0J-25001D01*
G01*
X3375001Y-5270000D02*
G75*
G02*
X3324999Y-5270000I-25001J0D01*
G01*
X3324999Y-5270000D02*
G75*
G02*
X3375001Y-5270000I25001J0D01*
G01*
X3300001Y-5295001D02*
X3399999Y-5295001D01*
X3399999Y-5244999D02*
G75*
G02*
X3399999Y-5295001I0J-25001D01*
G01*
X3399999Y-5244999D02*
X3300001Y-5244999D01*
X3300001Y-5244999D02*
G75*
G03*
X3300001Y-5295001I0J-25001D01*
G01*
X3485001Y-5730000D02*
G75*
G02*
X3434999Y-5730000I-25001J0D01*
G01*
X3434999Y-5730000D02*
G75*
G02*
X3485001Y-5730000I25001J0D01*
G01*
X3410001Y-5755001D02*
X3509999Y-5755001D01*
X3509999Y-5704999D02*
G75*
G02*
X3509999Y-5755001I0J-25001D01*
G01*
X3509999Y-5704999D02*
X3410001Y-5704999D01*
X3410001Y-5704999D02*
G75*
G03*
X3410001Y-5755001I0J-25001D01*
G01*
X7500000Y-4450000D02*
X7500000Y-4550000D01*
X7450000Y-4500000D02*
X7550000Y-4500000D01*
X7500000Y-4704000D02*
X7500000Y-4804000D01*
X7450000Y-4754000D02*
X7550000Y-4754000D01*
X7500000Y-4958000D02*
X7500000Y-5058000D01*
X7450000Y-5008000D02*
X7550000Y-5008000D01*
X7500000Y-5212000D02*
X7500000Y-5312000D01*
X7450000Y-5262000D02*
X7550000Y-5262000D01*
X7500000Y-5466000D02*
X7500000Y-5566000D01*
X7450000Y-5516000D02*
X7550000Y-5516000D01*
X7500000Y-5720000D02*
X7500000Y-5820000D01*
X7450000Y-5770000D02*
X7550000Y-5770000D01*
X7500000Y-5974000D02*
X7500000Y-6074000D01*
X7450000Y-6024000D02*
X7550000Y-6024000D01*
X7500000Y-6228000D02*
X7500000Y-6328000D01*
X7450000Y-6278000D02*
X7550000Y-6278000D01*
X7500000Y-6482000D02*
X7500000Y-6582000D01*
X7450000Y-6532000D02*
X7550000Y-6532000D01*
D13*
X2532427Y-5542427D02*
X2532427Y-5457573D01*
X2447573Y-5457573D01*
X2447573Y-5542427D01*
X2532427Y-5542427D01*
X3232427Y-5542427D02*
X3232427Y-5457573D01*
X3147573Y-5457573D01*
X3147573Y-5542427D01*
X3232427Y-5542427D01*
D11*
X2258277Y-7313984D02*
X2258277Y-7113984D01*
X2258277Y-7113984D02*
X2305896Y-7113984D01*
X2305896Y-7113984D02*
X2334467Y-7123508D01*
X2334467Y-7123508D02*
X2353515Y-7142555D01*
X2353515Y-7142555D02*
X2363039Y-7161603D01*
X2363039Y-7161603D02*
X2372563Y-7199698D01*
X2372563Y-7199698D02*
X2372563Y-7228269D01*
X2372563Y-7228269D02*
X2363039Y-7266365D01*
X2363039Y-7266365D02*
X2353515Y-7285412D01*
X2353515Y-7285412D02*
X2334467Y-7304460D01*
X2334467Y-7304460D02*
X2305896Y-7313984D01*
X2305896Y-7313984D02*
X2258277Y-7313984D01*
X2458277Y-7313984D02*
X2458277Y-7180650D01*
X2458277Y-7218746D02*
X2467801Y-7199698D01*
X2467801Y-7199698D02*
X2477324Y-7190174D01*
X2477324Y-7190174D02*
X2496372Y-7180650D01*
X2496372Y-7180650D02*
X2515420Y-7180650D01*
X2582086Y-7313984D02*
X2582086Y-7180650D01*
X2582086Y-7113984D02*
X2572563Y-7123508D01*
X2572563Y-7123508D02*
X2582086Y-7133031D01*
X2582086Y-7133031D02*
X2591610Y-7123508D01*
X2591610Y-7123508D02*
X2582086Y-7113984D01*
X2582086Y-7113984D02*
X2582086Y-7133031D01*
X2705896Y-7313984D02*
X2686848Y-7304460D01*
X2686848Y-7304460D02*
X2677324Y-7285412D01*
X2677324Y-7285412D02*
X2677324Y-7113984D01*
X2810658Y-7313984D02*
X2791610Y-7304460D01*
X2791610Y-7304460D02*
X2782086Y-7285412D01*
X2782086Y-7285412D02*
X2782086Y-7113984D01*
X3039229Y-7313984D02*
X3039229Y-7113984D01*
X3039229Y-7113984D02*
X3105896Y-7256841D01*
X3105896Y-7256841D02*
X3172562Y-7113984D01*
X3172562Y-7113984D02*
X3172562Y-7313984D01*
X3353515Y-7313984D02*
X3353515Y-7209222D01*
X3353515Y-7209222D02*
X3343991Y-7190174D01*
X3343991Y-7190174D02*
X3324943Y-7180650D01*
X3324943Y-7180650D02*
X3286848Y-7180650D01*
X3286848Y-7180650D02*
X3267801Y-7190174D01*
X3353515Y-7304460D02*
X3334467Y-7313984D01*
X3334467Y-7313984D02*
X3286848Y-7313984D01*
X3286848Y-7313984D02*
X3267801Y-7304460D01*
X3267801Y-7304460D02*
X3258277Y-7285412D01*
X3258277Y-7285412D02*
X3258277Y-7266365D01*
X3258277Y-7266365D02*
X3267801Y-7247317D01*
X3267801Y-7247317D02*
X3286848Y-7237793D01*
X3286848Y-7237793D02*
X3334467Y-7237793D01*
X3334467Y-7237793D02*
X3353515Y-7228269D01*
X3448753Y-7180650D02*
X3448753Y-7380650D01*
X3448753Y-7190174D02*
X3467801Y-7180650D01*
X3467801Y-7180650D02*
X3505896Y-7180650D01*
X3505896Y-7180650D02*
X3524943Y-7190174D01*
X3524943Y-7190174D02*
X3534467Y-7199698D01*
X3534467Y-7199698D02*
X3543991Y-7218746D01*
X3543991Y-7218746D02*
X3543991Y-7275888D01*
X3543991Y-7275888D02*
X3534467Y-7294936D01*
X3534467Y-7294936D02*
X3524943Y-7304460D01*
X3524943Y-7304460D02*
X3505896Y-7313984D01*
X3505896Y-7313984D02*
X3467801Y-7313984D01*
X3467801Y-7313984D02*
X3448753Y-7304460D01*
X3629705Y-7294936D02*
X3639229Y-7304460D01*
X3639229Y-7304460D02*
X3629705Y-7313984D01*
X3629705Y-7313984D02*
X3620182Y-7304460D01*
X3620182Y-7304460D02*
X3629705Y-7294936D01*
X3629705Y-7294936D02*
X3629705Y-7313984D01*
X3629705Y-7190174D02*
X3639229Y-7199698D01*
X3639229Y-7199698D02*
X3629705Y-7209222D01*
X3629705Y-7209222D02*
X3620182Y-7199698D01*
X3620182Y-7199698D02*
X3629705Y-7190174D01*
X3629705Y-7190174D02*
X3629705Y-7209222D01*
D12*
X1957500Y-7622500D02*
X1997500Y-7662500D01*
X1997500Y-7622500D02*
X1957500Y-7662500D01*
D11*
X2296372Y-7533984D02*
X2315420Y-7533984D01*
X2315420Y-7533984D02*
X2334467Y-7543508D01*
X2334467Y-7543508D02*
X2343991Y-7553031D01*
X2343991Y-7553031D02*
X2353515Y-7572079D01*
X2353515Y-7572079D02*
X2363039Y-7610174D01*
X2363039Y-7610174D02*
X2363039Y-7657793D01*
X2363039Y-7657793D02*
X2353515Y-7695888D01*
X2353515Y-7695888D02*
X2343991Y-7714936D01*
X2343991Y-7714936D02*
X2334467Y-7724460D01*
X2334467Y-7724460D02*
X2315420Y-7733984D01*
X2315420Y-7733984D02*
X2296372Y-7733984D01*
X2296372Y-7733984D02*
X2277324Y-7724460D01*
X2277324Y-7724460D02*
X2267801Y-7714936D01*
X2267801Y-7714936D02*
X2258277Y-7695888D01*
X2258277Y-7695888D02*
X2248753Y-7657793D01*
X2248753Y-7657793D02*
X2248753Y-7610174D01*
X2248753Y-7610174D02*
X2258277Y-7572079D01*
X2258277Y-7572079D02*
X2267801Y-7553031D01*
X2267801Y-7553031D02*
X2277324Y-7543508D01*
X2277324Y-7543508D02*
X2296372Y-7533984D01*
X2448753Y-7714936D02*
X2458277Y-7724460D01*
X2458277Y-7724460D02*
X2448753Y-7733984D01*
X2448753Y-7733984D02*
X2439229Y-7724460D01*
X2439229Y-7724460D02*
X2448753Y-7714936D01*
X2448753Y-7714936D02*
X2448753Y-7733984D01*
X2629705Y-7600650D02*
X2629705Y-7733984D01*
X2582086Y-7524460D02*
X2534467Y-7667317D01*
X2534467Y-7667317D02*
X2658277Y-7667317D01*
X2772563Y-7533984D02*
X2791610Y-7533984D01*
X2791610Y-7533984D02*
X2810658Y-7543508D01*
X2810658Y-7543508D02*
X2820182Y-7553031D01*
X2820182Y-7553031D02*
X2829705Y-7572079D01*
X2829705Y-7572079D02*
X2839229Y-7610174D01*
X2839229Y-7610174D02*
X2839229Y-7657793D01*
X2839229Y-7657793D02*
X2829705Y-7695888D01*
X2829705Y-7695888D02*
X2820182Y-7714936D01*
X2820182Y-7714936D02*
X2810658Y-7724460D01*
X2810658Y-7724460D02*
X2791610Y-7733984D01*
X2791610Y-7733984D02*
X2772563Y-7733984D01*
X2772563Y-7733984D02*
X2753515Y-7724460D01*
X2753515Y-7724460D02*
X2743991Y-7714936D01*
X2743991Y-7714936D02*
X2734467Y-7695888D01*
X2734467Y-7695888D02*
X2724944Y-7657793D01*
X2724944Y-7657793D02*
X2724944Y-7610174D01*
X2724944Y-7610174D02*
X2734467Y-7572079D01*
X2734467Y-7572079D02*
X2743991Y-7553031D01*
X2743991Y-7553031D02*
X2753515Y-7543508D01*
X2753515Y-7543508D02*
X2772563Y-7533984D01*
X2963039Y-7533984D02*
X2982086Y-7533984D01*
X2982086Y-7533984D02*
X3001134Y-7543508D01*
X3001134Y-7543508D02*
X3010658Y-7553031D01*
X3010658Y-7553031D02*
X3020182Y-7572079D01*
X3020182Y-7572079D02*
X3029705Y-7610174D01*
X3029705Y-7610174D02*
X3029705Y-7657793D01*
X3029705Y-7657793D02*
X3020182Y-7695888D01*
X3020182Y-7695888D02*
X3010658Y-7714936D01*
X3010658Y-7714936D02*
X3001134Y-7724460D01*
X3001134Y-7724460D02*
X2982086Y-7733984D01*
X2982086Y-7733984D02*
X2963039Y-7733984D01*
X2963039Y-7733984D02*
X2943991Y-7724460D01*
X2943991Y-7724460D02*
X2934467Y-7714936D01*
X2934467Y-7714936D02*
X2924943Y-7695888D01*
X2924943Y-7695888D02*
X2915420Y-7657793D01*
X2915420Y-7657793D02*
X2915420Y-7610174D01*
X2915420Y-7610174D02*
X2924943Y-7572079D01*
X2924943Y-7572079D02*
X2934467Y-7553031D01*
X2934467Y-7553031D02*
X2943991Y-7543508D01*
X2943991Y-7543508D02*
X2963039Y-7533984D01*
X3115420Y-7733984D02*
X3115420Y-7600650D01*
X3115420Y-7619698D02*
X3124943Y-7610174D01*
X3124943Y-7610174D02*
X3143991Y-7600650D01*
X3143991Y-7600650D02*
X3172563Y-7600650D01*
X3172563Y-7600650D02*
X3191610Y-7610174D01*
X3191610Y-7610174D02*
X3201134Y-7629222D01*
X3201134Y-7629222D02*
X3201134Y-7733984D01*
X3201134Y-7629222D02*
X3210658Y-7610174D01*
X3210658Y-7610174D02*
X3229705Y-7600650D01*
X3229705Y-7600650D02*
X3258277Y-7600650D01*
X3258277Y-7600650D02*
X3277324Y-7610174D01*
X3277324Y-7610174D02*
X3286848Y-7629222D01*
X3286848Y-7629222D02*
X3286848Y-7733984D01*
X3382086Y-7733984D02*
X3382086Y-7600650D01*
X3382086Y-7619698D02*
X3391610Y-7610174D01*
X3391610Y-7610174D02*
X3410658Y-7600650D01*
X3410658Y-7600650D02*
X3439229Y-7600650D01*
X3439229Y-7600650D02*
X3458277Y-7610174D01*
X3458277Y-7610174D02*
X3467801Y-7629222D01*
X3467801Y-7629222D02*
X3467801Y-7733984D01*
X3467801Y-7629222D02*
X3477324Y-7610174D01*
X3477324Y-7610174D02*
X3496372Y-7600650D01*
X3496372Y-7600650D02*
X3524943Y-7600650D01*
X3524943Y-7600650D02*
X3543991Y-7610174D01*
X3543991Y-7610174D02*
X3553515Y-7629222D01*
X3553515Y-7629222D02*
X3553515Y-7733984D01*
X3943991Y-7524460D02*
X3772563Y-7781603D01*
X4201134Y-7533984D02*
X4220182Y-7533984D01*
X4220182Y-7533984D02*
X4239229Y-7543508D01*
X4239229Y-7543508D02*
X4248753Y-7553031D01*
X4248753Y-7553031D02*
X4258277Y-7572079D01*
X4258277Y-7572079D02*
X4267801Y-7610174D01*
X4267801Y-7610174D02*
X4267801Y-7657793D01*
X4267801Y-7657793D02*
X4258277Y-7695888D01*
X4258277Y-7695888D02*
X4248753Y-7714936D01*
X4248753Y-7714936D02*
X4239229Y-7724460D01*
X4239229Y-7724460D02*
X4220182Y-7733984D01*
X4220182Y-7733984D02*
X4201134Y-7733984D01*
X4201134Y-7733984D02*
X4182086Y-7724460D01*
X4182086Y-7724460D02*
X4172563Y-7714936D01*
X4172563Y-7714936D02*
X4163039Y-7695888D01*
X4163039Y-7695888D02*
X4153515Y-7657793D01*
X4153515Y-7657793D02*
X4153515Y-7610174D01*
X4153515Y-7610174D02*
X4163039Y-7572079D01*
X4163039Y-7572079D02*
X4172563Y-7553031D01*
X4172563Y-7553031D02*
X4182086Y-7543508D01*
X4182086Y-7543508D02*
X4201134Y-7533984D01*
X4353515Y-7714936D02*
X4363039Y-7724460D01*
X4363039Y-7724460D02*
X4353515Y-7733984D01*
X4353515Y-7733984D02*
X4343991Y-7724460D01*
X4343991Y-7724460D02*
X4353515Y-7714936D01*
X4353515Y-7714936D02*
X4353515Y-7733984D01*
X4486848Y-7533984D02*
X4505896Y-7533984D01*
X4505896Y-7533984D02*
X4524944Y-7543508D01*
X4524944Y-7543508D02*
X4534468Y-7553031D01*
X4534468Y-7553031D02*
X4543991Y-7572079D01*
X4543991Y-7572079D02*
X4553515Y-7610174D01*
X4553515Y-7610174D02*
X4553515Y-7657793D01*
X4553515Y-7657793D02*
X4543991Y-7695888D01*
X4543991Y-7695888D02*
X4534468Y-7714936D01*
X4534468Y-7714936D02*
X4524944Y-7724460D01*
X4524944Y-7724460D02*
X4505896Y-7733984D01*
X4505896Y-7733984D02*
X4486848Y-7733984D01*
X4486848Y-7733984D02*
X4467801Y-7724460D01*
X4467801Y-7724460D02*
X4458277Y-7714936D01*
X4458277Y-7714936D02*
X4448753Y-7695888D01*
X4448753Y-7695888D02*
X4439229Y-7657793D01*
X4439229Y-7657793D02*
X4439229Y-7610174D01*
X4439229Y-7610174D02*
X4448753Y-7572079D01*
X4448753Y-7572079D02*
X4458277Y-7553031D01*
X4458277Y-7553031D02*
X4467801Y-7543508D01*
X4467801Y-7543508D02*
X4486848Y-7533984D01*
X4743991Y-7733984D02*
X4629706Y-7733984D01*
X4686848Y-7733984D02*
X4686848Y-7533984D01*
X4686848Y-7533984D02*
X4667801Y-7562555D01*
X4667801Y-7562555D02*
X4648753Y-7581603D01*
X4648753Y-7581603D02*
X4629706Y-7591127D01*
X4924944Y-7533984D02*
X4829706Y-7533984D01*
X4829706Y-7533984D02*
X4820182Y-7629222D01*
X4820182Y-7629222D02*
X4829706Y-7619698D01*
X4829706Y-7619698D02*
X4848753Y-7610174D01*
X4848753Y-7610174D02*
X4896372Y-7610174D01*
X4896372Y-7610174D02*
X4915420Y-7619698D01*
X4915420Y-7619698D02*
X4924944Y-7629222D01*
X4924944Y-7629222D02*
X4934468Y-7648269D01*
X4934468Y-7648269D02*
X4934468Y-7695888D01*
X4934468Y-7695888D02*
X4924944Y-7714936D01*
X4924944Y-7714936D02*
X4915420Y-7724460D01*
X4915420Y-7724460D02*
X4896372Y-7733984D01*
X4896372Y-7733984D02*
X4848753Y-7733984D01*
X4848753Y-7733984D02*
X4829706Y-7724460D01*
X4829706Y-7724460D02*
X4820182Y-7714936D01*
X5001134Y-7533984D02*
X5134468Y-7533984D01*
X5134468Y-7533984D02*
X5048753Y-7733984D01*
X5201134Y-7533984D02*
X5201134Y-7572079D01*
X5277325Y-7533984D02*
X5277325Y-7572079D01*
X5572563Y-7810174D02*
X5563039Y-7800650D01*
X5563039Y-7800650D02*
X5543991Y-7772079D01*
X5543991Y-7772079D02*
X5534468Y-7753031D01*
X5534468Y-7753031D02*
X5524944Y-7724460D01*
X5524944Y-7724460D02*
X5515420Y-7676841D01*
X5515420Y-7676841D02*
X5515420Y-7638746D01*
X5515420Y-7638746D02*
X5524944Y-7591127D01*
X5524944Y-7591127D02*
X5534468Y-7562555D01*
X5534468Y-7562555D02*
X5543991Y-7543508D01*
X5543991Y-7543508D02*
X5563039Y-7514936D01*
X5563039Y-7514936D02*
X5572563Y-7505412D01*
X5753515Y-7733984D02*
X5639229Y-7733984D01*
X5696372Y-7733984D02*
X5696372Y-7533984D01*
X5696372Y-7533984D02*
X5677325Y-7562555D01*
X5677325Y-7562555D02*
X5658277Y-7581603D01*
X5658277Y-7581603D02*
X5639229Y-7591127D01*
X5943991Y-7733984D02*
X5829706Y-7733984D01*
X5886848Y-7733984D02*
X5886848Y-7533984D01*
X5886848Y-7533984D02*
X5867801Y-7562555D01*
X5867801Y-7562555D02*
X5848753Y-7581603D01*
X5848753Y-7581603D02*
X5829706Y-7591127D01*
X6182087Y-7733984D02*
X6182087Y-7533984D01*
X6267801Y-7733984D02*
X6267801Y-7629222D01*
X6267801Y-7629222D02*
X6258277Y-7610174D01*
X6258277Y-7610174D02*
X6239230Y-7600650D01*
X6239230Y-7600650D02*
X6210658Y-7600650D01*
X6210658Y-7600650D02*
X6191610Y-7610174D01*
X6191610Y-7610174D02*
X6182087Y-7619698D01*
X6391610Y-7733984D02*
X6372563Y-7724460D01*
X6372563Y-7724460D02*
X6363039Y-7714936D01*
X6363039Y-7714936D02*
X6353515Y-7695888D01*
X6353515Y-7695888D02*
X6353515Y-7638746D01*
X6353515Y-7638746D02*
X6363039Y-7619698D01*
X6363039Y-7619698D02*
X6372563Y-7610174D01*
X6372563Y-7610174D02*
X6391610Y-7600650D01*
X6391610Y-7600650D02*
X6420182Y-7600650D01*
X6420182Y-7600650D02*
X6439230Y-7610174D01*
X6439230Y-7610174D02*
X6448753Y-7619698D01*
X6448753Y-7619698D02*
X6458277Y-7638746D01*
X6458277Y-7638746D02*
X6458277Y-7695888D01*
X6458277Y-7695888D02*
X6448753Y-7714936D01*
X6448753Y-7714936D02*
X6439230Y-7724460D01*
X6439230Y-7724460D02*
X6420182Y-7733984D01*
X6420182Y-7733984D02*
X6391610Y-7733984D01*
X6572563Y-7733984D02*
X6553515Y-7724460D01*
X6553515Y-7724460D02*
X6543991Y-7705412D01*
X6543991Y-7705412D02*
X6543991Y-7533984D01*
X6724944Y-7724460D02*
X6705896Y-7733984D01*
X6705896Y-7733984D02*
X6667801Y-7733984D01*
X6667801Y-7733984D02*
X6648753Y-7724460D01*
X6648753Y-7724460D02*
X6639230Y-7705412D01*
X6639230Y-7705412D02*
X6639230Y-7629222D01*
X6639230Y-7629222D02*
X6648753Y-7610174D01*
X6648753Y-7610174D02*
X6667801Y-7600650D01*
X6667801Y-7600650D02*
X6705896Y-7600650D01*
X6705896Y-7600650D02*
X6724944Y-7610174D01*
X6724944Y-7610174D02*
X6734468Y-7629222D01*
X6734468Y-7629222D02*
X6734468Y-7648269D01*
X6734468Y-7648269D02*
X6639230Y-7667317D01*
X6810658Y-7724460D02*
X6829706Y-7733984D01*
X6829706Y-7733984D02*
X6867801Y-7733984D01*
X6867801Y-7733984D02*
X6886849Y-7724460D01*
X6886849Y-7724460D02*
X6896372Y-7705412D01*
X6896372Y-7705412D02*
X6896372Y-7695888D01*
X6896372Y-7695888D02*
X6886849Y-7676841D01*
X6886849Y-7676841D02*
X6867801Y-7667317D01*
X6867801Y-7667317D02*
X6839230Y-7667317D01*
X6839230Y-7667317D02*
X6820182Y-7657793D01*
X6820182Y-7657793D02*
X6810658Y-7638746D01*
X6810658Y-7638746D02*
X6810658Y-7629222D01*
X6810658Y-7629222D02*
X6820182Y-7610174D01*
X6820182Y-7610174D02*
X6839230Y-7600650D01*
X6839230Y-7600650D02*
X6867801Y-7600650D01*
X6867801Y-7600650D02*
X6886849Y-7610174D01*
X6963039Y-7810174D02*
X6972563Y-7800650D01*
X6972563Y-7800650D02*
X6991611Y-7772079D01*
X6991611Y-7772079D02*
X7001134Y-7753031D01*
X7001134Y-7753031D02*
X7010658Y-7724460D01*
X7010658Y-7724460D02*
X7020182Y-7676841D01*
X7020182Y-7676841D02*
X7020182Y-7638746D01*
X7020182Y-7638746D02*
X7010658Y-7591127D01*
X7010658Y-7591127D02*
X7001134Y-7562555D01*
X7001134Y-7562555D02*
X6991611Y-7543508D01*
X6991611Y-7543508D02*
X6972563Y-7514936D01*
X6972563Y-7514936D02*
X6963039Y-7505412D01*
D12*
X1997500Y-7906500D02*
G75*
G02*
X1947498Y-7906500I-25001J0D01*
G01*
X1947498Y-7906500D02*
G75*
G02*
X1997500Y-7906500I25001J0D01*
G01*
D11*
X2296372Y-7797984D02*
X2315420Y-7797984D01*
X2315420Y-7797984D02*
X2334467Y-7807508D01*
X2334467Y-7807508D02*
X2343991Y-7817031D01*
X2343991Y-7817031D02*
X2353515Y-7836079D01*
X2353515Y-7836079D02*
X2363039Y-7874174D01*
X2363039Y-7874174D02*
X2363039Y-7921793D01*
X2363039Y-7921793D02*
X2353515Y-7959888D01*
X2353515Y-7959888D02*
X2343991Y-7978936D01*
X2343991Y-7978936D02*
X2334467Y-7988460D01*
X2334467Y-7988460D02*
X2315420Y-7997984D01*
X2315420Y-7997984D02*
X2296372Y-7997984D01*
X2296372Y-7997984D02*
X2277324Y-7988460D01*
X2277324Y-7988460D02*
X2267801Y-7978936D01*
X2267801Y-7978936D02*
X2258277Y-7959888D01*
X2258277Y-7959888D02*
X2248753Y-7921793D01*
X2248753Y-7921793D02*
X2248753Y-7874174D01*
X2248753Y-7874174D02*
X2258277Y-7836079D01*
X2258277Y-7836079D02*
X2267801Y-7817031D01*
X2267801Y-7817031D02*
X2277324Y-7807508D01*
X2277324Y-7807508D02*
X2296372Y-7797984D01*
X2448753Y-7978936D02*
X2458277Y-7988460D01*
X2458277Y-7988460D02*
X2448753Y-7997984D01*
X2448753Y-7997984D02*
X2439229Y-7988460D01*
X2439229Y-7988460D02*
X2448753Y-7978936D01*
X2448753Y-7978936D02*
X2448753Y-7997984D01*
X2639229Y-7797984D02*
X2543991Y-7797984D01*
X2543991Y-7797984D02*
X2534467Y-7893222D01*
X2534467Y-7893222D02*
X2543991Y-7883698D01*
X2543991Y-7883698D02*
X2563039Y-7874174D01*
X2563039Y-7874174D02*
X2610658Y-7874174D01*
X2610658Y-7874174D02*
X2629705Y-7883698D01*
X2629705Y-7883698D02*
X2639229Y-7893222D01*
X2639229Y-7893222D02*
X2648753Y-7912269D01*
X2648753Y-7912269D02*
X2648753Y-7959888D01*
X2648753Y-7959888D02*
X2639229Y-7978936D01*
X2639229Y-7978936D02*
X2629705Y-7988460D01*
X2629705Y-7988460D02*
X2610658Y-7997984D01*
X2610658Y-7997984D02*
X2563039Y-7997984D01*
X2563039Y-7997984D02*
X2543991Y-7988460D01*
X2543991Y-7988460D02*
X2534467Y-7978936D01*
X2772563Y-7797984D02*
X2791610Y-7797984D01*
X2791610Y-7797984D02*
X2810658Y-7807508D01*
X2810658Y-7807508D02*
X2820182Y-7817031D01*
X2820182Y-7817031D02*
X2829705Y-7836079D01*
X2829705Y-7836079D02*
X2839229Y-7874174D01*
X2839229Y-7874174D02*
X2839229Y-7921793D01*
X2839229Y-7921793D02*
X2829705Y-7959888D01*
X2829705Y-7959888D02*
X2820182Y-7978936D01*
X2820182Y-7978936D02*
X2810658Y-7988460D01*
X2810658Y-7988460D02*
X2791610Y-7997984D01*
X2791610Y-7997984D02*
X2772563Y-7997984D01*
X2772563Y-7997984D02*
X2753515Y-7988460D01*
X2753515Y-7988460D02*
X2743991Y-7978936D01*
X2743991Y-7978936D02*
X2734467Y-7959888D01*
X2734467Y-7959888D02*
X2724944Y-7921793D01*
X2724944Y-7921793D02*
X2724944Y-7874174D01*
X2724944Y-7874174D02*
X2734467Y-7836079D01*
X2734467Y-7836079D02*
X2743991Y-7817031D01*
X2743991Y-7817031D02*
X2753515Y-7807508D01*
X2753515Y-7807508D02*
X2772563Y-7797984D01*
X2963039Y-7797984D02*
X2982086Y-7797984D01*
X2982086Y-7797984D02*
X3001134Y-7807508D01*
X3001134Y-7807508D02*
X3010658Y-7817031D01*
X3010658Y-7817031D02*
X3020182Y-7836079D01*
X3020182Y-7836079D02*
X3029705Y-7874174D01*
X3029705Y-7874174D02*
X3029705Y-7921793D01*
X3029705Y-7921793D02*
X3020182Y-7959888D01*
X3020182Y-7959888D02*
X3010658Y-7978936D01*
X3010658Y-7978936D02*
X3001134Y-7988460D01*
X3001134Y-7988460D02*
X2982086Y-7997984D01*
X2982086Y-7997984D02*
X2963039Y-7997984D01*
X2963039Y-7997984D02*
X2943991Y-7988460D01*
X2943991Y-7988460D02*
X2934467Y-7978936D01*
X2934467Y-7978936D02*
X2924943Y-7959888D01*
X2924943Y-7959888D02*
X2915420Y-7921793D01*
X2915420Y-7921793D02*
X2915420Y-7874174D01*
X2915420Y-7874174D02*
X2924943Y-7836079D01*
X2924943Y-7836079D02*
X2934467Y-7817031D01*
X2934467Y-7817031D02*
X2943991Y-7807508D01*
X2943991Y-7807508D02*
X2963039Y-7797984D01*
X3115420Y-7997984D02*
X3115420Y-7864650D01*
X3115420Y-7883698D02*
X3124943Y-7874174D01*
X3124943Y-7874174D02*
X3143991Y-7864650D01*
X3143991Y-7864650D02*
X3172563Y-7864650D01*
X3172563Y-7864650D02*
X3191610Y-7874174D01*
X3191610Y-7874174D02*
X3201134Y-7893222D01*
X3201134Y-7893222D02*
X3201134Y-7997984D01*
X3201134Y-7893222D02*
X3210658Y-7874174D01*
X3210658Y-7874174D02*
X3229705Y-7864650D01*
X3229705Y-7864650D02*
X3258277Y-7864650D01*
X3258277Y-7864650D02*
X3277324Y-7874174D01*
X3277324Y-7874174D02*
X3286848Y-7893222D01*
X3286848Y-7893222D02*
X3286848Y-7997984D01*
X3382086Y-7997984D02*
X3382086Y-7864650D01*
X3382086Y-7883698D02*
X3391610Y-7874174D01*
X3391610Y-7874174D02*
X3410658Y-7864650D01*
X3410658Y-7864650D02*
X3439229Y-7864650D01*
X3439229Y-7864650D02*
X3458277Y-7874174D01*
X3458277Y-7874174D02*
X3467801Y-7893222D01*
X3467801Y-7893222D02*
X3467801Y-7997984D01*
X3467801Y-7893222D02*
X3477324Y-7874174D01*
X3477324Y-7874174D02*
X3496372Y-7864650D01*
X3496372Y-7864650D02*
X3524943Y-7864650D01*
X3524943Y-7864650D02*
X3543991Y-7874174D01*
X3543991Y-7874174D02*
X3553515Y-7893222D01*
X3553515Y-7893222D02*
X3553515Y-7997984D01*
X3943991Y-7788460D02*
X3772563Y-8045603D01*
X4201134Y-7797984D02*
X4220182Y-7797984D01*
X4220182Y-7797984D02*
X4239229Y-7807508D01*
X4239229Y-7807508D02*
X4248753Y-7817031D01*
X4248753Y-7817031D02*
X4258277Y-7836079D01*
X4258277Y-7836079D02*
X4267801Y-7874174D01*
X4267801Y-7874174D02*
X4267801Y-7921793D01*
X4267801Y-7921793D02*
X4258277Y-7959888D01*
X4258277Y-7959888D02*
X4248753Y-7978936D01*
X4248753Y-7978936D02*
X4239229Y-7988460D01*
X4239229Y-7988460D02*
X4220182Y-7997984D01*
X4220182Y-7997984D02*
X4201134Y-7997984D01*
X4201134Y-7997984D02*
X4182086Y-7988460D01*
X4182086Y-7988460D02*
X4172563Y-7978936D01*
X4172563Y-7978936D02*
X4163039Y-7959888D01*
X4163039Y-7959888D02*
X4153515Y-7921793D01*
X4153515Y-7921793D02*
X4153515Y-7874174D01*
X4153515Y-7874174D02*
X4163039Y-7836079D01*
X4163039Y-7836079D02*
X4172563Y-7817031D01*
X4172563Y-7817031D02*
X4182086Y-7807508D01*
X4182086Y-7807508D02*
X4201134Y-7797984D01*
X4353515Y-7978936D02*
X4363039Y-7988460D01*
X4363039Y-7988460D02*
X4353515Y-7997984D01*
X4353515Y-7997984D02*
X4343991Y-7988460D01*
X4343991Y-7988460D02*
X4353515Y-7978936D01*
X4353515Y-7978936D02*
X4353515Y-7997984D01*
X4486848Y-7797984D02*
X4505896Y-7797984D01*
X4505896Y-7797984D02*
X4524944Y-7807508D01*
X4524944Y-7807508D02*
X4534468Y-7817031D01*
X4534468Y-7817031D02*
X4543991Y-7836079D01*
X4543991Y-7836079D02*
X4553515Y-7874174D01*
X4553515Y-7874174D02*
X4553515Y-7921793D01*
X4553515Y-7921793D02*
X4543991Y-7959888D01*
X4543991Y-7959888D02*
X4534468Y-7978936D01*
X4534468Y-7978936D02*
X4524944Y-7988460D01*
X4524944Y-7988460D02*
X4505896Y-7997984D01*
X4505896Y-7997984D02*
X4486848Y-7997984D01*
X4486848Y-7997984D02*
X4467801Y-7988460D01*
X4467801Y-7988460D02*
X4458277Y-7978936D01*
X4458277Y-7978936D02*
X4448753Y-7959888D01*
X4448753Y-7959888D02*
X4439229Y-7921793D01*
X4439229Y-7921793D02*
X4439229Y-7874174D01*
X4439229Y-7874174D02*
X4448753Y-7836079D01*
X4448753Y-7836079D02*
X4458277Y-7817031D01*
X4458277Y-7817031D02*
X4467801Y-7807508D01*
X4467801Y-7807508D02*
X4486848Y-7797984D01*
X4743991Y-7997984D02*
X4629706Y-7997984D01*
X4686848Y-7997984D02*
X4686848Y-7797984D01*
X4686848Y-7797984D02*
X4667801Y-7826555D01*
X4667801Y-7826555D02*
X4648753Y-7845603D01*
X4648753Y-7845603D02*
X4629706Y-7855127D01*
X4839229Y-7997984D02*
X4877325Y-7997984D01*
X4877325Y-7997984D02*
X4896372Y-7988460D01*
X4896372Y-7988460D02*
X4905896Y-7978936D01*
X4905896Y-7978936D02*
X4924944Y-7950365D01*
X4924944Y-7950365D02*
X4934468Y-7912269D01*
X4934468Y-7912269D02*
X4934468Y-7836079D01*
X4934468Y-7836079D02*
X4924944Y-7817031D01*
X4924944Y-7817031D02*
X4915420Y-7807508D01*
X4915420Y-7807508D02*
X4896372Y-7797984D01*
X4896372Y-7797984D02*
X4858277Y-7797984D01*
X4858277Y-7797984D02*
X4839229Y-7807508D01*
X4839229Y-7807508D02*
X4829706Y-7817031D01*
X4829706Y-7817031D02*
X4820182Y-7836079D01*
X4820182Y-7836079D02*
X4820182Y-7883698D01*
X4820182Y-7883698D02*
X4829706Y-7902746D01*
X4829706Y-7902746D02*
X4839229Y-7912269D01*
X4839229Y-7912269D02*
X4858277Y-7921793D01*
X4858277Y-7921793D02*
X4896372Y-7921793D01*
X4896372Y-7921793D02*
X4915420Y-7912269D01*
X4915420Y-7912269D02*
X4924944Y-7902746D01*
X4924944Y-7902746D02*
X4934468Y-7883698D01*
X5001134Y-7797984D02*
X5134468Y-7797984D01*
X5134468Y-7797984D02*
X5048753Y-7997984D01*
X5201134Y-7797984D02*
X5201134Y-7836079D01*
X5277325Y-7797984D02*
X5277325Y-7836079D01*
X5572563Y-8074174D02*
X5563039Y-8064650D01*
X5563039Y-8064650D02*
X5543991Y-8036079D01*
X5543991Y-8036079D02*
X5534468Y-8017031D01*
X5534468Y-8017031D02*
X5524944Y-7988460D01*
X5524944Y-7988460D02*
X5515420Y-7940841D01*
X5515420Y-7940841D02*
X5515420Y-7902746D01*
X5515420Y-7902746D02*
X5524944Y-7855127D01*
X5524944Y-7855127D02*
X5534468Y-7826555D01*
X5534468Y-7826555D02*
X5543991Y-7807508D01*
X5543991Y-7807508D02*
X5563039Y-7778936D01*
X5563039Y-7778936D02*
X5572563Y-7769412D01*
X5686848Y-7797984D02*
X5705896Y-7797984D01*
X5705896Y-7797984D02*
X5724944Y-7807508D01*
X5724944Y-7807508D02*
X5734468Y-7817031D01*
X5734468Y-7817031D02*
X5743991Y-7836079D01*
X5743991Y-7836079D02*
X5753515Y-7874174D01*
X5753515Y-7874174D02*
X5753515Y-7921793D01*
X5753515Y-7921793D02*
X5743991Y-7959888D01*
X5743991Y-7959888D02*
X5734468Y-7978936D01*
X5734468Y-7978936D02*
X5724944Y-7988460D01*
X5724944Y-7988460D02*
X5705896Y-7997984D01*
X5705896Y-7997984D02*
X5686848Y-7997984D01*
X5686848Y-7997984D02*
X5667801Y-7988460D01*
X5667801Y-7988460D02*
X5658277Y-7978936D01*
X5658277Y-7978936D02*
X5648753Y-7959888D01*
X5648753Y-7959888D02*
X5639229Y-7921793D01*
X5639229Y-7921793D02*
X5639229Y-7874174D01*
X5639229Y-7874174D02*
X5648753Y-7836079D01*
X5648753Y-7836079D02*
X5658277Y-7817031D01*
X5658277Y-7817031D02*
X5667801Y-7807508D01*
X5667801Y-7807508D02*
X5686848Y-7797984D01*
X5991610Y-7997984D02*
X5991610Y-7797984D01*
X6077325Y-7997984D02*
X6077325Y-7893222D01*
X6077325Y-7893222D02*
X6067801Y-7874174D01*
X6067801Y-7874174D02*
X6048753Y-7864650D01*
X6048753Y-7864650D02*
X6020182Y-7864650D01*
X6020182Y-7864650D02*
X6001134Y-7874174D01*
X6001134Y-7874174D02*
X5991610Y-7883698D01*
X6201134Y-7997984D02*
X6182087Y-7988460D01*
X6182087Y-7988460D02*
X6172563Y-7978936D01*
X6172563Y-7978936D02*
X6163039Y-7959888D01*
X6163039Y-7959888D02*
X6163039Y-7902746D01*
X6163039Y-7902746D02*
X6172563Y-7883698D01*
X6172563Y-7883698D02*
X6182087Y-7874174D01*
X6182087Y-7874174D02*
X6201134Y-7864650D01*
X6201134Y-7864650D02*
X6229706Y-7864650D01*
X6229706Y-7864650D02*
X6248753Y-7874174D01*
X6248753Y-7874174D02*
X6258277Y-7883698D01*
X6258277Y-7883698D02*
X6267801Y-7902746D01*
X6267801Y-7902746D02*
X6267801Y-7959888D01*
X6267801Y-7959888D02*
X6258277Y-7978936D01*
X6258277Y-7978936D02*
X6248753Y-7988460D01*
X6248753Y-7988460D02*
X6229706Y-7997984D01*
X6229706Y-7997984D02*
X6201134Y-7997984D01*
X6382087Y-7997984D02*
X6363039Y-7988460D01*
X6363039Y-7988460D02*
X6353515Y-7969412D01*
X6353515Y-7969412D02*
X6353515Y-7797984D01*
X6534468Y-7988460D02*
X6515420Y-7997984D01*
X6515420Y-7997984D02*
X6477325Y-7997984D01*
X6477325Y-7997984D02*
X6458277Y-7988460D01*
X6458277Y-7988460D02*
X6448753Y-7969412D01*
X6448753Y-7969412D02*
X6448753Y-7893222D01*
X6448753Y-7893222D02*
X6458277Y-7874174D01*
X6458277Y-7874174D02*
X6477325Y-7864650D01*
X6477325Y-7864650D02*
X6515420Y-7864650D01*
X6515420Y-7864650D02*
X6534468Y-7874174D01*
X6534468Y-7874174D02*
X6543991Y-7893222D01*
X6543991Y-7893222D02*
X6543991Y-7912269D01*
X6543991Y-7912269D02*
X6448753Y-7931317D01*
X6620182Y-7988460D02*
X6639230Y-7997984D01*
X6639230Y-7997984D02*
X6677325Y-7997984D01*
X6677325Y-7997984D02*
X6696372Y-7988460D01*
X6696372Y-7988460D02*
X6705896Y-7969412D01*
X6705896Y-7969412D02*
X6705896Y-7959888D01*
X6705896Y-7959888D02*
X6696372Y-7940841D01*
X6696372Y-7940841D02*
X6677325Y-7931317D01*
X6677325Y-7931317D02*
X6648753Y-7931317D01*
X6648753Y-7931317D02*
X6629706Y-7921793D01*
X6629706Y-7921793D02*
X6620182Y-7902746D01*
X6620182Y-7902746D02*
X6620182Y-7893222D01*
X6620182Y-7893222D02*
X6629706Y-7874174D01*
X6629706Y-7874174D02*
X6648753Y-7864650D01*
X6648753Y-7864650D02*
X6677325Y-7864650D01*
X6677325Y-7864650D02*
X6696372Y-7874174D01*
X6943992Y-7921793D02*
X7096373Y-7921793D01*
X7020182Y-7997984D02*
X7020182Y-7845603D01*
X7429706Y-7864650D02*
X7429706Y-7997984D01*
X7382087Y-7788460D02*
X7334468Y-7931317D01*
X7334468Y-7931317D02*
X7458277Y-7931317D01*
X7677325Y-7988460D02*
X7696373Y-7997984D01*
X7696373Y-7997984D02*
X7734468Y-7997984D01*
X7734468Y-7997984D02*
X7753515Y-7988460D01*
X7753515Y-7988460D02*
X7763039Y-7969412D01*
X7763039Y-7969412D02*
X7763039Y-7959888D01*
X7763039Y-7959888D02*
X7753515Y-7940841D01*
X7753515Y-7940841D02*
X7734468Y-7931317D01*
X7734468Y-7931317D02*
X7705896Y-7931317D01*
X7705896Y-7931317D02*
X7686849Y-7921793D01*
X7686849Y-7921793D02*
X7677325Y-7902746D01*
X7677325Y-7902746D02*
X7677325Y-7893222D01*
X7677325Y-7893222D02*
X7686849Y-7874174D01*
X7686849Y-7874174D02*
X7705896Y-7864650D01*
X7705896Y-7864650D02*
X7734468Y-7864650D01*
X7734468Y-7864650D02*
X7753515Y-7874174D01*
X7877325Y-7997984D02*
X7858277Y-7988460D01*
X7858277Y-7988460D02*
X7848754Y-7969412D01*
X7848754Y-7969412D02*
X7848754Y-7797984D01*
X7982087Y-7997984D02*
X7963039Y-7988460D01*
X7963039Y-7988460D02*
X7953515Y-7978936D01*
X7953515Y-7978936D02*
X7943992Y-7959888D01*
X7943992Y-7959888D02*
X7943992Y-7902746D01*
X7943992Y-7902746D02*
X7953515Y-7883698D01*
X7953515Y-7883698D02*
X7963039Y-7874174D01*
X7963039Y-7874174D02*
X7982087Y-7864650D01*
X7982087Y-7864650D02*
X8010658Y-7864650D01*
X8010658Y-7864650D02*
X8029706Y-7874174D01*
X8029706Y-7874174D02*
X8039230Y-7883698D01*
X8039230Y-7883698D02*
X8048754Y-7902746D01*
X8048754Y-7902746D02*
X8048754Y-7959888D01*
X8048754Y-7959888D02*
X8039230Y-7978936D01*
X8039230Y-7978936D02*
X8029706Y-7988460D01*
X8029706Y-7988460D02*
X8010658Y-7997984D01*
X8010658Y-7997984D02*
X7982087Y-7997984D01*
X8105896Y-7864650D02*
X8182087Y-7864650D01*
X8134468Y-7797984D02*
X8134468Y-7969412D01*
X8134468Y-7969412D02*
X8143992Y-7988460D01*
X8143992Y-7988460D02*
X8163039Y-7997984D01*
X8163039Y-7997984D02*
X8182087Y-7997984D01*
X8239230Y-7988460D02*
X8258277Y-7997984D01*
X8258277Y-7997984D02*
X8296373Y-7997984D01*
X8296373Y-7997984D02*
X8315420Y-7988460D01*
X8315420Y-7988460D02*
X8324944Y-7969412D01*
X8324944Y-7969412D02*
X8324944Y-7959888D01*
X8324944Y-7959888D02*
X8315420Y-7940841D01*
X8315420Y-7940841D02*
X8296373Y-7931317D01*
X8296373Y-7931317D02*
X8267801Y-7931317D01*
X8267801Y-7931317D02*
X8248754Y-7921793D01*
X8248754Y-7921793D02*
X8239230Y-7902746D01*
X8239230Y-7902746D02*
X8239230Y-7893222D01*
X8239230Y-7893222D02*
X8248754Y-7874174D01*
X8248754Y-7874174D02*
X8267801Y-7864650D01*
X8267801Y-7864650D02*
X8296373Y-7864650D01*
X8296373Y-7864650D02*
X8315420Y-7874174D01*
X8391611Y-8074174D02*
X8401135Y-8064650D01*
X8401135Y-8064650D02*
X8420182Y-8036079D01*
X8420182Y-8036079D02*
X8429706Y-8017031D01*
X8429706Y-8017031D02*
X8439230Y-7988460D01*
X8439230Y-7988460D02*
X8448754Y-7940841D01*
X8448754Y-7940841D02*
X8448754Y-7902746D01*
X8448754Y-7902746D02*
X8439230Y-7855127D01*
X8439230Y-7855127D02*
X8429706Y-7826555D01*
X8429706Y-7826555D02*
X8420182Y-7807508D01*
X8420182Y-7807508D02*
X8401135Y-7778936D01*
X8401135Y-7778936D02*
X8391611Y-7769412D01*
D12*
X1947500Y-8120500D02*
X1947500Y-8220500D01*
X1897500Y-8170500D02*
X1997500Y-8170500D01*
D11*
X2363039Y-8261984D02*
X2248753Y-8261984D01*
X2305896Y-8261984D02*
X2305896Y-8061984D01*
X2305896Y-8061984D02*
X2286848Y-8090555D01*
X2286848Y-8090555D02*
X2267801Y-8109603D01*
X2267801Y-8109603D02*
X2248753Y-8119127D01*
X2448753Y-8242936D02*
X2458277Y-8252460D01*
X2458277Y-8252460D02*
X2448753Y-8261984D01*
X2448753Y-8261984D02*
X2439229Y-8252460D01*
X2439229Y-8252460D02*
X2448753Y-8242936D01*
X2448753Y-8242936D02*
X2448753Y-8261984D01*
X2582086Y-8061984D02*
X2601134Y-8061984D01*
X2601134Y-8061984D02*
X2620182Y-8071508D01*
X2620182Y-8071508D02*
X2629705Y-8081031D01*
X2629705Y-8081031D02*
X2639229Y-8100079D01*
X2639229Y-8100079D02*
X2648753Y-8138174D01*
X2648753Y-8138174D02*
X2648753Y-8185793D01*
X2648753Y-8185793D02*
X2639229Y-8223888D01*
X2639229Y-8223888D02*
X2629705Y-8242936D01*
X2629705Y-8242936D02*
X2620182Y-8252460D01*
X2620182Y-8252460D02*
X2601134Y-8261984D01*
X2601134Y-8261984D02*
X2582086Y-8261984D01*
X2582086Y-8261984D02*
X2563039Y-8252460D01*
X2563039Y-8252460D02*
X2553515Y-8242936D01*
X2553515Y-8242936D02*
X2543991Y-8223888D01*
X2543991Y-8223888D02*
X2534467Y-8185793D01*
X2534467Y-8185793D02*
X2534467Y-8138174D01*
X2534467Y-8138174D02*
X2543991Y-8100079D01*
X2543991Y-8100079D02*
X2553515Y-8081031D01*
X2553515Y-8081031D02*
X2563039Y-8071508D01*
X2563039Y-8071508D02*
X2582086Y-8061984D01*
X2772563Y-8061984D02*
X2791610Y-8061984D01*
X2791610Y-8061984D02*
X2810658Y-8071508D01*
X2810658Y-8071508D02*
X2820182Y-8081031D01*
X2820182Y-8081031D02*
X2829705Y-8100079D01*
X2829705Y-8100079D02*
X2839229Y-8138174D01*
X2839229Y-8138174D02*
X2839229Y-8185793D01*
X2839229Y-8185793D02*
X2829705Y-8223888D01*
X2829705Y-8223888D02*
X2820182Y-8242936D01*
X2820182Y-8242936D02*
X2810658Y-8252460D01*
X2810658Y-8252460D02*
X2791610Y-8261984D01*
X2791610Y-8261984D02*
X2772563Y-8261984D01*
X2772563Y-8261984D02*
X2753515Y-8252460D01*
X2753515Y-8252460D02*
X2743991Y-8242936D01*
X2743991Y-8242936D02*
X2734467Y-8223888D01*
X2734467Y-8223888D02*
X2724944Y-8185793D01*
X2724944Y-8185793D02*
X2724944Y-8138174D01*
X2724944Y-8138174D02*
X2734467Y-8100079D01*
X2734467Y-8100079D02*
X2743991Y-8081031D01*
X2743991Y-8081031D02*
X2753515Y-8071508D01*
X2753515Y-8071508D02*
X2772563Y-8061984D01*
X2963039Y-8061984D02*
X2982086Y-8061984D01*
X2982086Y-8061984D02*
X3001134Y-8071508D01*
X3001134Y-8071508D02*
X3010658Y-8081031D01*
X3010658Y-8081031D02*
X3020182Y-8100079D01*
X3020182Y-8100079D02*
X3029705Y-8138174D01*
X3029705Y-8138174D02*
X3029705Y-8185793D01*
X3029705Y-8185793D02*
X3020182Y-8223888D01*
X3020182Y-8223888D02*
X3010658Y-8242936D01*
X3010658Y-8242936D02*
X3001134Y-8252460D01*
X3001134Y-8252460D02*
X2982086Y-8261984D01*
X2982086Y-8261984D02*
X2963039Y-8261984D01*
X2963039Y-8261984D02*
X2943991Y-8252460D01*
X2943991Y-8252460D02*
X2934467Y-8242936D01*
X2934467Y-8242936D02*
X2924943Y-8223888D01*
X2924943Y-8223888D02*
X2915420Y-8185793D01*
X2915420Y-8185793D02*
X2915420Y-8138174D01*
X2915420Y-8138174D02*
X2924943Y-8100079D01*
X2924943Y-8100079D02*
X2934467Y-8081031D01*
X2934467Y-8081031D02*
X2943991Y-8071508D01*
X2943991Y-8071508D02*
X2963039Y-8061984D01*
X3115420Y-8261984D02*
X3115420Y-8128650D01*
X3115420Y-8147698D02*
X3124943Y-8138174D01*
X3124943Y-8138174D02*
X3143991Y-8128650D01*
X3143991Y-8128650D02*
X3172563Y-8128650D01*
X3172563Y-8128650D02*
X3191610Y-8138174D01*
X3191610Y-8138174D02*
X3201134Y-8157222D01*
X3201134Y-8157222D02*
X3201134Y-8261984D01*
X3201134Y-8157222D02*
X3210658Y-8138174D01*
X3210658Y-8138174D02*
X3229705Y-8128650D01*
X3229705Y-8128650D02*
X3258277Y-8128650D01*
X3258277Y-8128650D02*
X3277324Y-8138174D01*
X3277324Y-8138174D02*
X3286848Y-8157222D01*
X3286848Y-8157222D02*
X3286848Y-8261984D01*
X3382086Y-8261984D02*
X3382086Y-8128650D01*
X3382086Y-8147698D02*
X3391610Y-8138174D01*
X3391610Y-8138174D02*
X3410658Y-8128650D01*
X3410658Y-8128650D02*
X3439229Y-8128650D01*
X3439229Y-8128650D02*
X3458277Y-8138174D01*
X3458277Y-8138174D02*
X3467801Y-8157222D01*
X3467801Y-8157222D02*
X3467801Y-8261984D01*
X3467801Y-8157222D02*
X3477324Y-8138174D01*
X3477324Y-8138174D02*
X3496372Y-8128650D01*
X3496372Y-8128650D02*
X3524943Y-8128650D01*
X3524943Y-8128650D02*
X3543991Y-8138174D01*
X3543991Y-8138174D02*
X3553515Y-8157222D01*
X3553515Y-8157222D02*
X3553515Y-8261984D01*
X3943991Y-8052460D02*
X3772563Y-8309603D01*
X4201134Y-8061984D02*
X4220182Y-8061984D01*
X4220182Y-8061984D02*
X4239229Y-8071508D01*
X4239229Y-8071508D02*
X4248753Y-8081031D01*
X4248753Y-8081031D02*
X4258277Y-8100079D01*
X4258277Y-8100079D02*
X4267801Y-8138174D01*
X4267801Y-8138174D02*
X4267801Y-8185793D01*
X4267801Y-8185793D02*
X4258277Y-8223888D01*
X4258277Y-8223888D02*
X4248753Y-8242936D01*
X4248753Y-8242936D02*
X4239229Y-8252460D01*
X4239229Y-8252460D02*
X4220182Y-8261984D01*
X4220182Y-8261984D02*
X4201134Y-8261984D01*
X4201134Y-8261984D02*
X4182086Y-8252460D01*
X4182086Y-8252460D02*
X4172563Y-8242936D01*
X4172563Y-8242936D02*
X4163039Y-8223888D01*
X4163039Y-8223888D02*
X4153515Y-8185793D01*
X4153515Y-8185793D02*
X4153515Y-8138174D01*
X4153515Y-8138174D02*
X4163039Y-8100079D01*
X4163039Y-8100079D02*
X4172563Y-8081031D01*
X4172563Y-8081031D02*
X4182086Y-8071508D01*
X4182086Y-8071508D02*
X4201134Y-8061984D01*
X4353515Y-8242936D02*
X4363039Y-8252460D01*
X4363039Y-8252460D02*
X4353515Y-8261984D01*
X4353515Y-8261984D02*
X4343991Y-8252460D01*
X4343991Y-8252460D02*
X4353515Y-8242936D01*
X4353515Y-8242936D02*
X4353515Y-8261984D01*
X4486848Y-8061984D02*
X4505896Y-8061984D01*
X4505896Y-8061984D02*
X4524944Y-8071508D01*
X4524944Y-8071508D02*
X4534468Y-8081031D01*
X4534468Y-8081031D02*
X4543991Y-8100079D01*
X4543991Y-8100079D02*
X4553515Y-8138174D01*
X4553515Y-8138174D02*
X4553515Y-8185793D01*
X4553515Y-8185793D02*
X4543991Y-8223888D01*
X4543991Y-8223888D02*
X4534468Y-8242936D01*
X4534468Y-8242936D02*
X4524944Y-8252460D01*
X4524944Y-8252460D02*
X4505896Y-8261984D01*
X4505896Y-8261984D02*
X4486848Y-8261984D01*
X4486848Y-8261984D02*
X4467801Y-8252460D01*
X4467801Y-8252460D02*
X4458277Y-8242936D01*
X4458277Y-8242936D02*
X4448753Y-8223888D01*
X4448753Y-8223888D02*
X4439229Y-8185793D01*
X4439229Y-8185793D02*
X4439229Y-8138174D01*
X4439229Y-8138174D02*
X4448753Y-8100079D01*
X4448753Y-8100079D02*
X4458277Y-8081031D01*
X4458277Y-8081031D02*
X4467801Y-8071508D01*
X4467801Y-8071508D02*
X4486848Y-8061984D01*
X4620182Y-8061984D02*
X4743991Y-8061984D01*
X4743991Y-8061984D02*
X4677325Y-8138174D01*
X4677325Y-8138174D02*
X4705896Y-8138174D01*
X4705896Y-8138174D02*
X4724944Y-8147698D01*
X4724944Y-8147698D02*
X4734468Y-8157222D01*
X4734468Y-8157222D02*
X4743991Y-8176269D01*
X4743991Y-8176269D02*
X4743991Y-8223888D01*
X4743991Y-8223888D02*
X4734468Y-8242936D01*
X4734468Y-8242936D02*
X4724944Y-8252460D01*
X4724944Y-8252460D02*
X4705896Y-8261984D01*
X4705896Y-8261984D02*
X4648753Y-8261984D01*
X4648753Y-8261984D02*
X4629706Y-8252460D01*
X4629706Y-8252460D02*
X4620182Y-8242936D01*
X4839229Y-8261984D02*
X4877325Y-8261984D01*
X4877325Y-8261984D02*
X4896372Y-8252460D01*
X4896372Y-8252460D02*
X4905896Y-8242936D01*
X4905896Y-8242936D02*
X4924944Y-8214365D01*
X4924944Y-8214365D02*
X4934468Y-8176269D01*
X4934468Y-8176269D02*
X4934468Y-8100079D01*
X4934468Y-8100079D02*
X4924944Y-8081031D01*
X4924944Y-8081031D02*
X4915420Y-8071508D01*
X4915420Y-8071508D02*
X4896372Y-8061984D01*
X4896372Y-8061984D02*
X4858277Y-8061984D01*
X4858277Y-8061984D02*
X4839229Y-8071508D01*
X4839229Y-8071508D02*
X4829706Y-8081031D01*
X4829706Y-8081031D02*
X4820182Y-8100079D01*
X4820182Y-8100079D02*
X4820182Y-8147698D01*
X4820182Y-8147698D02*
X4829706Y-8166746D01*
X4829706Y-8166746D02*
X4839229Y-8176269D01*
X4839229Y-8176269D02*
X4858277Y-8185793D01*
X4858277Y-8185793D02*
X4896372Y-8185793D01*
X4896372Y-8185793D02*
X4915420Y-8176269D01*
X4915420Y-8176269D02*
X4924944Y-8166746D01*
X4924944Y-8166746D02*
X4934468Y-8147698D01*
X5105896Y-8128650D02*
X5105896Y-8261984D01*
X5058277Y-8052460D02*
X5010658Y-8195317D01*
X5010658Y-8195317D02*
X5134468Y-8195317D01*
X5201134Y-8061984D02*
X5201134Y-8100079D01*
X5277325Y-8061984D02*
X5277325Y-8100079D01*
X5572563Y-8338174D02*
X5563039Y-8328650D01*
X5563039Y-8328650D02*
X5543991Y-8300079D01*
X5543991Y-8300079D02*
X5534468Y-8281031D01*
X5534468Y-8281031D02*
X5524944Y-8252460D01*
X5524944Y-8252460D02*
X5515420Y-8204841D01*
X5515420Y-8204841D02*
X5515420Y-8166746D01*
X5515420Y-8166746D02*
X5524944Y-8119127D01*
X5524944Y-8119127D02*
X5534468Y-8090555D01*
X5534468Y-8090555D02*
X5543991Y-8071508D01*
X5543991Y-8071508D02*
X5563039Y-8042936D01*
X5563039Y-8042936D02*
X5572563Y-8033412D01*
X5658277Y-8261984D02*
X5696372Y-8261984D01*
X5696372Y-8261984D02*
X5715420Y-8252460D01*
X5715420Y-8252460D02*
X5724944Y-8242936D01*
X5724944Y-8242936D02*
X5743991Y-8214365D01*
X5743991Y-8214365D02*
X5753515Y-8176269D01*
X5753515Y-8176269D02*
X5753515Y-8100079D01*
X5753515Y-8100079D02*
X5743991Y-8081031D01*
X5743991Y-8081031D02*
X5734468Y-8071508D01*
X5734468Y-8071508D02*
X5715420Y-8061984D01*
X5715420Y-8061984D02*
X5677325Y-8061984D01*
X5677325Y-8061984D02*
X5658277Y-8071508D01*
X5658277Y-8071508D02*
X5648753Y-8081031D01*
X5648753Y-8081031D02*
X5639229Y-8100079D01*
X5639229Y-8100079D02*
X5639229Y-8147698D01*
X5639229Y-8147698D02*
X5648753Y-8166746D01*
X5648753Y-8166746D02*
X5658277Y-8176269D01*
X5658277Y-8176269D02*
X5677325Y-8185793D01*
X5677325Y-8185793D02*
X5715420Y-8185793D01*
X5715420Y-8185793D02*
X5734468Y-8176269D01*
X5734468Y-8176269D02*
X5743991Y-8166746D01*
X5743991Y-8166746D02*
X5753515Y-8147698D01*
X5991610Y-8261984D02*
X5991610Y-8061984D01*
X6077325Y-8261984D02*
X6077325Y-8157222D01*
X6077325Y-8157222D02*
X6067801Y-8138174D01*
X6067801Y-8138174D02*
X6048753Y-8128650D01*
X6048753Y-8128650D02*
X6020182Y-8128650D01*
X6020182Y-8128650D02*
X6001134Y-8138174D01*
X6001134Y-8138174D02*
X5991610Y-8147698D01*
X6201134Y-8261984D02*
X6182087Y-8252460D01*
X6182087Y-8252460D02*
X6172563Y-8242936D01*
X6172563Y-8242936D02*
X6163039Y-8223888D01*
X6163039Y-8223888D02*
X6163039Y-8166746D01*
X6163039Y-8166746D02*
X6172563Y-8147698D01*
X6172563Y-8147698D02*
X6182087Y-8138174D01*
X6182087Y-8138174D02*
X6201134Y-8128650D01*
X6201134Y-8128650D02*
X6229706Y-8128650D01*
X6229706Y-8128650D02*
X6248753Y-8138174D01*
X6248753Y-8138174D02*
X6258277Y-8147698D01*
X6258277Y-8147698D02*
X6267801Y-8166746D01*
X6267801Y-8166746D02*
X6267801Y-8223888D01*
X6267801Y-8223888D02*
X6258277Y-8242936D01*
X6258277Y-8242936D02*
X6248753Y-8252460D01*
X6248753Y-8252460D02*
X6229706Y-8261984D01*
X6229706Y-8261984D02*
X6201134Y-8261984D01*
X6382087Y-8261984D02*
X6363039Y-8252460D01*
X6363039Y-8252460D02*
X6353515Y-8233412D01*
X6353515Y-8233412D02*
X6353515Y-8061984D01*
X6534468Y-8252460D02*
X6515420Y-8261984D01*
X6515420Y-8261984D02*
X6477325Y-8261984D01*
X6477325Y-8261984D02*
X6458277Y-8252460D01*
X6458277Y-8252460D02*
X6448753Y-8233412D01*
X6448753Y-8233412D02*
X6448753Y-8157222D01*
X6448753Y-8157222D02*
X6458277Y-8138174D01*
X6458277Y-8138174D02*
X6477325Y-8128650D01*
X6477325Y-8128650D02*
X6515420Y-8128650D01*
X6515420Y-8128650D02*
X6534468Y-8138174D01*
X6534468Y-8138174D02*
X6543991Y-8157222D01*
X6543991Y-8157222D02*
X6543991Y-8176269D01*
X6543991Y-8176269D02*
X6448753Y-8195317D01*
X6620182Y-8252460D02*
X6639230Y-8261984D01*
X6639230Y-8261984D02*
X6677325Y-8261984D01*
X6677325Y-8261984D02*
X6696372Y-8252460D01*
X6696372Y-8252460D02*
X6705896Y-8233412D01*
X6705896Y-8233412D02*
X6705896Y-8223888D01*
X6705896Y-8223888D02*
X6696372Y-8204841D01*
X6696372Y-8204841D02*
X6677325Y-8195317D01*
X6677325Y-8195317D02*
X6648753Y-8195317D01*
X6648753Y-8195317D02*
X6629706Y-8185793D01*
X6629706Y-8185793D02*
X6620182Y-8166746D01*
X6620182Y-8166746D02*
X6620182Y-8157222D01*
X6620182Y-8157222D02*
X6629706Y-8138174D01*
X6629706Y-8138174D02*
X6648753Y-8128650D01*
X6648753Y-8128650D02*
X6677325Y-8128650D01*
X6677325Y-8128650D02*
X6696372Y-8138174D01*
X6772563Y-8338174D02*
X6782087Y-8328650D01*
X6782087Y-8328650D02*
X6801134Y-8300079D01*
X6801134Y-8300079D02*
X6810658Y-8281031D01*
X6810658Y-8281031D02*
X6820182Y-8252460D01*
X6820182Y-8252460D02*
X6829706Y-8204841D01*
X6829706Y-8204841D02*
X6829706Y-8166746D01*
X6829706Y-8166746D02*
X6820182Y-8119127D01*
X6820182Y-8119127D02*
X6810658Y-8090555D01*
X6810658Y-8090555D02*
X6801134Y-8071508D01*
X6801134Y-8071508D02*
X6782087Y-8042936D01*
X6782087Y-8042936D02*
X6772563Y-8033412D01*
D13*
X1979927Y-8476927D02*
X1979927Y-8392073D01*
X1895073Y-8392073D01*
X1895073Y-8476927D01*
X1979927Y-8476927D01*
D11*
X2363039Y-8525984D02*
X2248753Y-8525984D01*
X2305896Y-8525984D02*
X2305896Y-8325984D01*
X2305896Y-8325984D02*
X2286848Y-8354555D01*
X2286848Y-8354555D02*
X2267801Y-8373603D01*
X2267801Y-8373603D02*
X2248753Y-8383127D01*
X2448753Y-8506936D02*
X2458277Y-8516460D01*
X2458277Y-8516460D02*
X2448753Y-8525984D01*
X2448753Y-8525984D02*
X2439229Y-8516460D01*
X2439229Y-8516460D02*
X2448753Y-8506936D01*
X2448753Y-8506936D02*
X2448753Y-8525984D01*
X2534467Y-8345031D02*
X2543991Y-8335508D01*
X2543991Y-8335508D02*
X2563039Y-8325984D01*
X2563039Y-8325984D02*
X2610658Y-8325984D01*
X2610658Y-8325984D02*
X2629705Y-8335508D01*
X2629705Y-8335508D02*
X2639229Y-8345031D01*
X2639229Y-8345031D02*
X2648753Y-8364079D01*
X2648753Y-8364079D02*
X2648753Y-8383127D01*
X2648753Y-8383127D02*
X2639229Y-8411698D01*
X2639229Y-8411698D02*
X2524944Y-8525984D01*
X2524944Y-8525984D02*
X2648753Y-8525984D01*
X2772563Y-8325984D02*
X2791610Y-8325984D01*
X2791610Y-8325984D02*
X2810658Y-8335508D01*
X2810658Y-8335508D02*
X2820182Y-8345031D01*
X2820182Y-8345031D02*
X2829705Y-8364079D01*
X2829705Y-8364079D02*
X2839229Y-8402174D01*
X2839229Y-8402174D02*
X2839229Y-8449793D01*
X2839229Y-8449793D02*
X2829705Y-8487889D01*
X2829705Y-8487889D02*
X2820182Y-8506936D01*
X2820182Y-8506936D02*
X2810658Y-8516460D01*
X2810658Y-8516460D02*
X2791610Y-8525984D01*
X2791610Y-8525984D02*
X2772563Y-8525984D01*
X2772563Y-8525984D02*
X2753515Y-8516460D01*
X2753515Y-8516460D02*
X2743991Y-8506936D01*
X2743991Y-8506936D02*
X2734467Y-8487889D01*
X2734467Y-8487889D02*
X2724944Y-8449793D01*
X2724944Y-8449793D02*
X2724944Y-8402174D01*
X2724944Y-8402174D02*
X2734467Y-8364079D01*
X2734467Y-8364079D02*
X2743991Y-8345031D01*
X2743991Y-8345031D02*
X2753515Y-8335508D01*
X2753515Y-8335508D02*
X2772563Y-8325984D01*
X2963039Y-8325984D02*
X2982086Y-8325984D01*
X2982086Y-8325984D02*
X3001134Y-8335508D01*
X3001134Y-8335508D02*
X3010658Y-8345031D01*
X3010658Y-8345031D02*
X3020182Y-8364079D01*
X3020182Y-8364079D02*
X3029705Y-8402174D01*
X3029705Y-8402174D02*
X3029705Y-8449793D01*
X3029705Y-8449793D02*
X3020182Y-8487889D01*
X3020182Y-8487889D02*
X3010658Y-8506936D01*
X3010658Y-8506936D02*
X3001134Y-8516460D01*
X3001134Y-8516460D02*
X2982086Y-8525984D01*
X2982086Y-8525984D02*
X2963039Y-8525984D01*
X2963039Y-8525984D02*
X2943991Y-8516460D01*
X2943991Y-8516460D02*
X2934467Y-8506936D01*
X2934467Y-8506936D02*
X2924943Y-8487889D01*
X2924943Y-8487889D02*
X2915420Y-8449793D01*
X2915420Y-8449793D02*
X2915420Y-8402174D01*
X2915420Y-8402174D02*
X2924943Y-8364079D01*
X2924943Y-8364079D02*
X2934467Y-8345031D01*
X2934467Y-8345031D02*
X2943991Y-8335508D01*
X2943991Y-8335508D02*
X2963039Y-8325984D01*
X3115420Y-8525984D02*
X3115420Y-8392650D01*
X3115420Y-8411698D02*
X3124943Y-8402174D01*
X3124943Y-8402174D02*
X3143991Y-8392650D01*
X3143991Y-8392650D02*
X3172563Y-8392650D01*
X3172563Y-8392650D02*
X3191610Y-8402174D01*
X3191610Y-8402174D02*
X3201134Y-8421222D01*
X3201134Y-8421222D02*
X3201134Y-8525984D01*
X3201134Y-8421222D02*
X3210658Y-8402174D01*
X3210658Y-8402174D02*
X3229705Y-8392650D01*
X3229705Y-8392650D02*
X3258277Y-8392650D01*
X3258277Y-8392650D02*
X3277324Y-8402174D01*
X3277324Y-8402174D02*
X3286848Y-8421222D01*
X3286848Y-8421222D02*
X3286848Y-8525984D01*
X3382086Y-8525984D02*
X3382086Y-8392650D01*
X3382086Y-8411698D02*
X3391610Y-8402174D01*
X3391610Y-8402174D02*
X3410658Y-8392650D01*
X3410658Y-8392650D02*
X3439229Y-8392650D01*
X3439229Y-8392650D02*
X3458277Y-8402174D01*
X3458277Y-8402174D02*
X3467801Y-8421222D01*
X3467801Y-8421222D02*
X3467801Y-8525984D01*
X3467801Y-8421222D02*
X3477324Y-8402174D01*
X3477324Y-8402174D02*
X3496372Y-8392650D01*
X3496372Y-8392650D02*
X3524943Y-8392650D01*
X3524943Y-8392650D02*
X3543991Y-8402174D01*
X3543991Y-8402174D02*
X3553515Y-8421222D01*
X3553515Y-8421222D02*
X3553515Y-8525984D01*
X3943991Y-8316460D02*
X3772563Y-8573603D01*
X4201134Y-8325984D02*
X4220182Y-8325984D01*
X4220182Y-8325984D02*
X4239229Y-8335508D01*
X4239229Y-8335508D02*
X4248753Y-8345031D01*
X4248753Y-8345031D02*
X4258277Y-8364079D01*
X4258277Y-8364079D02*
X4267801Y-8402174D01*
X4267801Y-8402174D02*
X4267801Y-8449793D01*
X4267801Y-8449793D02*
X4258277Y-8487889D01*
X4258277Y-8487889D02*
X4248753Y-8506936D01*
X4248753Y-8506936D02*
X4239229Y-8516460D01*
X4239229Y-8516460D02*
X4220182Y-8525984D01*
X4220182Y-8525984D02*
X4201134Y-8525984D01*
X4201134Y-8525984D02*
X4182086Y-8516460D01*
X4182086Y-8516460D02*
X4172563Y-8506936D01*
X4172563Y-8506936D02*
X4163039Y-8487889D01*
X4163039Y-8487889D02*
X4153515Y-8449793D01*
X4153515Y-8449793D02*
X4153515Y-8402174D01*
X4153515Y-8402174D02*
X4163039Y-8364079D01*
X4163039Y-8364079D02*
X4172563Y-8345031D01*
X4172563Y-8345031D02*
X4182086Y-8335508D01*
X4182086Y-8335508D02*
X4201134Y-8325984D01*
X4353515Y-8506936D02*
X4363039Y-8516460D01*
X4363039Y-8516460D02*
X4353515Y-8525984D01*
X4353515Y-8525984D02*
X4343991Y-8516460D01*
X4343991Y-8516460D02*
X4353515Y-8506936D01*
X4353515Y-8506936D02*
X4353515Y-8525984D01*
X4486848Y-8325984D02*
X4505896Y-8325984D01*
X4505896Y-8325984D02*
X4524944Y-8335508D01*
X4524944Y-8335508D02*
X4534468Y-8345031D01*
X4534468Y-8345031D02*
X4543991Y-8364079D01*
X4543991Y-8364079D02*
X4553515Y-8402174D01*
X4553515Y-8402174D02*
X4553515Y-8449793D01*
X4553515Y-8449793D02*
X4543991Y-8487889D01*
X4543991Y-8487889D02*
X4534468Y-8506936D01*
X4534468Y-8506936D02*
X4524944Y-8516460D01*
X4524944Y-8516460D02*
X4505896Y-8525984D01*
X4505896Y-8525984D02*
X4486848Y-8525984D01*
X4486848Y-8525984D02*
X4467801Y-8516460D01*
X4467801Y-8516460D02*
X4458277Y-8506936D01*
X4458277Y-8506936D02*
X4448753Y-8487889D01*
X4448753Y-8487889D02*
X4439229Y-8449793D01*
X4439229Y-8449793D02*
X4439229Y-8402174D01*
X4439229Y-8402174D02*
X4448753Y-8364079D01*
X4448753Y-8364079D02*
X4458277Y-8345031D01*
X4458277Y-8345031D02*
X4467801Y-8335508D01*
X4467801Y-8335508D02*
X4486848Y-8325984D01*
X4724944Y-8392650D02*
X4724944Y-8525984D01*
X4677325Y-8316460D02*
X4629706Y-8459317D01*
X4629706Y-8459317D02*
X4753515Y-8459317D01*
X4810658Y-8325984D02*
X4943991Y-8325984D01*
X4943991Y-8325984D02*
X4858277Y-8525984D01*
X5010658Y-8345031D02*
X5020182Y-8335508D01*
X5020182Y-8335508D02*
X5039229Y-8325984D01*
X5039229Y-8325984D02*
X5086849Y-8325984D01*
X5086849Y-8325984D02*
X5105896Y-8335508D01*
X5105896Y-8335508D02*
X5115420Y-8345031D01*
X5115420Y-8345031D02*
X5124944Y-8364079D01*
X5124944Y-8364079D02*
X5124944Y-8383127D01*
X5124944Y-8383127D02*
X5115420Y-8411698D01*
X5115420Y-8411698D02*
X5001134Y-8525984D01*
X5001134Y-8525984D02*
X5124944Y-8525984D01*
X5201134Y-8325984D02*
X5201134Y-8364079D01*
X5277325Y-8325984D02*
X5277325Y-8364079D01*
X5572563Y-8602174D02*
X5563039Y-8592650D01*
X5563039Y-8592650D02*
X5543991Y-8564079D01*
X5543991Y-8564079D02*
X5534468Y-8545031D01*
X5534468Y-8545031D02*
X5524944Y-8516460D01*
X5524944Y-8516460D02*
X5515420Y-8468841D01*
X5515420Y-8468841D02*
X5515420Y-8430746D01*
X5515420Y-8430746D02*
X5524944Y-8383127D01*
X5524944Y-8383127D02*
X5534468Y-8354555D01*
X5534468Y-8354555D02*
X5543991Y-8335508D01*
X5543991Y-8335508D02*
X5563039Y-8306936D01*
X5563039Y-8306936D02*
X5572563Y-8297412D01*
X5639229Y-8345031D02*
X5648753Y-8335508D01*
X5648753Y-8335508D02*
X5667801Y-8325984D01*
X5667801Y-8325984D02*
X5715420Y-8325984D01*
X5715420Y-8325984D02*
X5734468Y-8335508D01*
X5734468Y-8335508D02*
X5743991Y-8345031D01*
X5743991Y-8345031D02*
X5753515Y-8364079D01*
X5753515Y-8364079D02*
X5753515Y-8383127D01*
X5753515Y-8383127D02*
X5743991Y-8411698D01*
X5743991Y-8411698D02*
X5629706Y-8525984D01*
X5629706Y-8525984D02*
X5753515Y-8525984D01*
X5991610Y-8525984D02*
X5991610Y-8325984D01*
X6077325Y-8525984D02*
X6077325Y-8421222D01*
X6077325Y-8421222D02*
X6067801Y-8402174D01*
X6067801Y-8402174D02*
X6048753Y-8392650D01*
X6048753Y-8392650D02*
X6020182Y-8392650D01*
X6020182Y-8392650D02*
X6001134Y-8402174D01*
X6001134Y-8402174D02*
X5991610Y-8411698D01*
X6201134Y-8525984D02*
X6182087Y-8516460D01*
X6182087Y-8516460D02*
X6172563Y-8506936D01*
X6172563Y-8506936D02*
X6163039Y-8487889D01*
X6163039Y-8487889D02*
X6163039Y-8430746D01*
X6163039Y-8430746D02*
X6172563Y-8411698D01*
X6172563Y-8411698D02*
X6182087Y-8402174D01*
X6182087Y-8402174D02*
X6201134Y-8392650D01*
X6201134Y-8392650D02*
X6229706Y-8392650D01*
X6229706Y-8392650D02*
X6248753Y-8402174D01*
X6248753Y-8402174D02*
X6258277Y-8411698D01*
X6258277Y-8411698D02*
X6267801Y-8430746D01*
X6267801Y-8430746D02*
X6267801Y-8487889D01*
X6267801Y-8487889D02*
X6258277Y-8506936D01*
X6258277Y-8506936D02*
X6248753Y-8516460D01*
X6248753Y-8516460D02*
X6229706Y-8525984D01*
X6229706Y-8525984D02*
X6201134Y-8525984D01*
X6382087Y-8525984D02*
X6363039Y-8516460D01*
X6363039Y-8516460D02*
X6353515Y-8497412D01*
X6353515Y-8497412D02*
X6353515Y-8325984D01*
X6534468Y-8516460D02*
X6515420Y-8525984D01*
X6515420Y-8525984D02*
X6477325Y-8525984D01*
X6477325Y-8525984D02*
X6458277Y-8516460D01*
X6458277Y-8516460D02*
X6448753Y-8497412D01*
X6448753Y-8497412D02*
X6448753Y-8421222D01*
X6448753Y-8421222D02*
X6458277Y-8402174D01*
X6458277Y-8402174D02*
X6477325Y-8392650D01*
X6477325Y-8392650D02*
X6515420Y-8392650D01*
X6515420Y-8392650D02*
X6534468Y-8402174D01*
X6534468Y-8402174D02*
X6543991Y-8421222D01*
X6543991Y-8421222D02*
X6543991Y-8440270D01*
X6543991Y-8440270D02*
X6448753Y-8459317D01*
X6620182Y-8516460D02*
X6639230Y-8525984D01*
X6639230Y-8525984D02*
X6677325Y-8525984D01*
X6677325Y-8525984D02*
X6696372Y-8516460D01*
X6696372Y-8516460D02*
X6705896Y-8497412D01*
X6705896Y-8497412D02*
X6705896Y-8487889D01*
X6705896Y-8487889D02*
X6696372Y-8468841D01*
X6696372Y-8468841D02*
X6677325Y-8459317D01*
X6677325Y-8459317D02*
X6648753Y-8459317D01*
X6648753Y-8459317D02*
X6629706Y-8449793D01*
X6629706Y-8449793D02*
X6620182Y-8430746D01*
X6620182Y-8430746D02*
X6620182Y-8421222D01*
X6620182Y-8421222D02*
X6629706Y-8402174D01*
X6629706Y-8402174D02*
X6648753Y-8392650D01*
X6648753Y-8392650D02*
X6677325Y-8392650D01*
X6677325Y-8392650D02*
X6696372Y-8402174D01*
X6772563Y-8602174D02*
X6782087Y-8592650D01*
X6782087Y-8592650D02*
X6801134Y-8564079D01*
X6801134Y-8564079D02*
X6810658Y-8545031D01*
X6810658Y-8545031D02*
X6820182Y-8516460D01*
X6820182Y-8516460D02*
X6829706Y-8468841D01*
X6829706Y-8468841D02*
X6829706Y-8430746D01*
X6829706Y-8430746D02*
X6820182Y-8383127D01*
X6820182Y-8383127D02*
X6810658Y-8354555D01*
X6810658Y-8354555D02*
X6801134Y-8335508D01*
X6801134Y-8335508D02*
X6782087Y-8306936D01*
X6782087Y-8306936D02*
X6772563Y-8297412D01*
M02*
