%TF.GenerationSoftware,KiCad,Pcbnew,10.0.3*%
%TF.CreationDate,2026-06-10T22:05:53-04:00*%
%TF.ProjectId,ECG-Biosensor-AD8232-final,4543472d-4269-46f7-9365-6e736f722d41,rev?*%
%TF.SameCoordinates,Original*%
%TF.FileFunction,Copper,L2,Bot*%
%TF.FilePolarity,Positive*%
%FSLAX46Y46*%
G04 Gerber Fmt 4.6, Leading zero omitted, Abs format (unit mm)*
G04 Created by KiCad (PCBNEW 10.0.3) date 2026-06-10 22:05:53*
%MOMM*%
%LPD*%
G01*
G04 APERTURE LIST*
%TA.AperFunction,ComponentPad*%
%ADD10R,1.700000X1.700000*%
%TD*%
%TA.AperFunction,ComponentPad*%
%ADD11C,1.700000*%
%TD*%
%TA.AperFunction,ComponentPad*%
%ADD12C,1.200000*%
%TD*%
%TA.AperFunction,ComponentPad*%
%ADD13O,2.000000X1.000000*%
%TD*%
%TA.AperFunction,ViaPad*%
%ADD14C,0.800000*%
%TD*%
%TA.AperFunction,Conductor*%
%ADD15C,0.250000*%
%TD*%
G04 APERTURE END LIST*
D10*
%TO.P,J2,1*%
%TO.N,VCC*%
X75000000Y-45000000D03*
D11*
%TO.P,J2,2*%
%TO.N,GND*%
X75000000Y-47540000D03*
%TO.P,J2,3*%
%TO.N,ECG_OUT*%
X75000000Y-50080000D03*
%TO.P,J2,4*%
%TO.N,LO_PLUS*%
X75000000Y-52620000D03*
%TO.P,J2,5*%
%TO.N,LO_MINUS*%
X75000000Y-55160000D03*
%TO.P,J2,6*%
%TO.N,VCC*%
X75000000Y-57700000D03*
%TO.P,J2,7*%
%TO.N,REFOUT*%
X75000000Y-60240000D03*
%TO.P,J2,8*%
%TO.N,IAOUT*%
X75000000Y-62780000D03*
%TO.P,J2,9*%
%TO.N,N/C*%
X75000000Y-65320000D03*
%TD*%
D12*
%TO.P,J1,*%
%TO.N,*%
X24900000Y-55000000D03*
X31900000Y-55000000D03*
D13*
%TO.P,J1,2*%
%TO.N,J1_SLEEVE*%
X34600000Y-57300000D03*
%TO.P,J1,3*%
%TO.N,ECG_INN*%
X29500000Y-52700000D03*
%TO.P,J1,4*%
%TO.N,RLD*%
X33500000Y-52700000D03*
%TO.P,J1,5*%
%TO.N,ECG_INP*%
X26500000Y-52700000D03*
%TD*%
D14*
%TO.N,ECG_INP*%
X26500000Y-44500000D03*
X46130000Y-44500000D03*
%TO.N,ECG_INN*%
X29500000Y-45000000D03*
X46130000Y-45000000D03*
%TO.N,RLD*%
X33500000Y-45500000D03*
X46130000Y-45500000D03*
%TO.N,REFIN*%
X48500000Y-43130000D03*
X42750000Y-58000000D03*
X47250000Y-58000000D03*
%TO.N,IAOUT*%
X48000000Y-43130000D03*
X75000000Y-62780000D03*
%TD*%
%TO.N,ECG_INP*%
D15*
X26500000Y-44500000D02*
X46130000Y-44500000D01*
%TO.N,ECG_INN*%
X29500000Y-45000000D02*
X46130000Y-45000000D01*
%TO.N,RLD*%
X33500000Y-45500000D02*
X46130000Y-45500000D01*
%TO.N,REFIN*%
X48500000Y-43130000D02*
X48500000Y-41500000D01*
X48500000Y-41500000D02*
X42750000Y-41500000D01*
X42750000Y-41500000D02*
X42750000Y-58000000D01*
X48500000Y-41500000D02*
X47250000Y-41500000D01*
X47250000Y-41500000D02*
X47250000Y-58000000D01*
%TO.N,IAOUT*%
X48000000Y-43130000D02*
X48000000Y-42000000D01*
X48000000Y-42000000D02*
X59000000Y-42000000D01*
X59000000Y-42000000D02*
X59000000Y-62780000D01*
X59000000Y-62780000D02*
X75000000Y-62780000D01*
%TD*%
%TA.AperFunction,Conductor*%
%TO.N,GND*%
G36*
X158943039Y-14519685D02*
G01*
X158988794Y-14572489D01*
X159000000Y-14624000D01*
X159000000Y-68876000D01*
X158980315Y-68943039D01*
X158927511Y-68988794D01*
X158876000Y-69000000D01*
X21124000Y-69000000D01*
X21056961Y-68980315D01*
X21011206Y-68927511D01*
X21000000Y-68876000D01*
X21000000Y-57398543D01*
X33099499Y-57398543D01*
X33137947Y-57591829D01*
X33137950Y-57591839D01*
X33213364Y-57773907D01*
X33213371Y-57773920D01*
X33322860Y-57937781D01*
X33322863Y-57937785D01*
X33462214Y-58077136D01*
X33462218Y-58077139D01*
X33626079Y-58186628D01*
X33626092Y-58186635D01*
X33808160Y-58262049D01*
X33808165Y-58262051D01*
X33808169Y-58262051D01*
X33808170Y-58262052D01*
X34001456Y-58300500D01*
X34001459Y-58300500D01*
X35198543Y-58300500D01*
X35328582Y-58274632D01*
X35391835Y-58262051D01*
X35573914Y-58186632D01*
X35737782Y-58077139D01*
X35877139Y-57937782D01*
X35986632Y-57773914D01*
X36062051Y-57591835D01*
X36100500Y-57398541D01*
X36100500Y-57201459D01*
X36100500Y-57201456D01*
X36062052Y-57008170D01*
X36062051Y-57008169D01*
X36062051Y-57008165D01*
X36055432Y-56992184D01*
X35986635Y-56826092D01*
X35986628Y-56826079D01*
X35877139Y-56662218D01*
X35877136Y-56662214D01*
X35737785Y-56522863D01*
X35737781Y-56522860D01*
X35573920Y-56413371D01*
X35573907Y-56413364D01*
X35391839Y-56337950D01*
X35391829Y-56337947D01*
X35198543Y-56299500D01*
X35198541Y-56299500D01*
X34001459Y-56299500D01*
X34001457Y-56299500D01*
X33808170Y-56337947D01*
X33808160Y-56337950D01*
X33626092Y-56413364D01*
X33626079Y-56413371D01*
X33462218Y-56522860D01*
X33462214Y-56522863D01*
X33322863Y-56662214D01*
X33322860Y-56662218D01*
X33213371Y-56826079D01*
X33213364Y-56826092D01*
X33137950Y-57008160D01*
X33137947Y-57008170D01*
X33099500Y-57201456D01*
X33099500Y-57201459D01*
X33099500Y-57398541D01*
X33099500Y-57398543D01*
X33099499Y-57398543D01*
X21000000Y-57398543D01*
X21000000Y-54913389D01*
X23799500Y-54913389D01*
X23799500Y-55086611D01*
X23826598Y-55257701D01*
X23880127Y-55422445D01*
X23958768Y-55576788D01*
X24060586Y-55716928D01*
X24183072Y-55839414D01*
X24323212Y-55941232D01*
X24477555Y-56019873D01*
X24642299Y-56073402D01*
X24813389Y-56100500D01*
X24813390Y-56100500D01*
X24986610Y-56100500D01*
X24986611Y-56100500D01*
X25157701Y-56073402D01*
X25322445Y-56019873D01*
X25476788Y-55941232D01*
X25616928Y-55839414D01*
X25739414Y-55716928D01*
X25841232Y-55576788D01*
X25919873Y-55422445D01*
X25973402Y-55257701D01*
X26000500Y-55086611D01*
X26000500Y-54913389D01*
X30799500Y-54913389D01*
X30799500Y-55086611D01*
X30826598Y-55257701D01*
X30880127Y-55422445D01*
X30958768Y-55576788D01*
X31060586Y-55716928D01*
X31183072Y-55839414D01*
X31323212Y-55941232D01*
X31477555Y-56019873D01*
X31642299Y-56073402D01*
X31813389Y-56100500D01*
X31813390Y-56100500D01*
X31986610Y-56100500D01*
X31986611Y-56100500D01*
X32157701Y-56073402D01*
X32322445Y-56019873D01*
X32476788Y-55941232D01*
X32616928Y-55839414D01*
X32739414Y-55716928D01*
X32841232Y-55576788D01*
X32919873Y-55422445D01*
X32973402Y-55257701D01*
X33000500Y-55086611D01*
X33000500Y-54913389D01*
X32973402Y-54742299D01*
X32919873Y-54577555D01*
X32841232Y-54423212D01*
X32739414Y-54283072D01*
X32616928Y-54160586D01*
X32476788Y-54058768D01*
X32322445Y-53980127D01*
X32157701Y-53926598D01*
X32157699Y-53926597D01*
X32157698Y-53926597D01*
X32026271Y-53905781D01*
X31986611Y-53899500D01*
X31813389Y-53899500D01*
X31773728Y-53905781D01*
X31642302Y-53926597D01*
X31477552Y-53980128D01*
X31323211Y-54058768D01*
X31243256Y-54116859D01*
X31183072Y-54160586D01*
X31183070Y-54160588D01*
X31183069Y-54160588D01*
X31060588Y-54283069D01*
X31060588Y-54283070D01*
X31060586Y-54283072D01*
X31016859Y-54343256D01*
X30958768Y-54423211D01*
X30880128Y-54577552D01*
X30826597Y-54742302D01*
X30810528Y-54843760D01*
X30799500Y-54913389D01*
X26000500Y-54913389D01*
X25973402Y-54742299D01*
X25919873Y-54577555D01*
X25841232Y-54423212D01*
X25739414Y-54283072D01*
X25616928Y-54160586D01*
X25476788Y-54058768D01*
X25322445Y-53980127D01*
X25157701Y-53926598D01*
X25157699Y-53926597D01*
X25157698Y-53926597D01*
X25026271Y-53905781D01*
X24986611Y-53899500D01*
X24813389Y-53899500D01*
X24773728Y-53905781D01*
X24642302Y-53926597D01*
X24477552Y-53980128D01*
X24323211Y-54058768D01*
X24243256Y-54116859D01*
X24183072Y-54160586D01*
X24183070Y-54160588D01*
X24183069Y-54160588D01*
X24060588Y-54283069D01*
X24060588Y-54283070D01*
X24060586Y-54283072D01*
X24016859Y-54343256D01*
X23958768Y-54423211D01*
X23880128Y-54577552D01*
X23826597Y-54742302D01*
X23810528Y-54843760D01*
X23799500Y-54913389D01*
X21000000Y-54913389D01*
X21000000Y-52798543D01*
X24999499Y-52798543D01*
X25037947Y-52991829D01*
X25037950Y-52991839D01*
X25113364Y-53173907D01*
X25113371Y-53173920D01*
X25222860Y-53337781D01*
X25222863Y-53337785D01*
X25362214Y-53477136D01*
X25362218Y-53477139D01*
X25526079Y-53586628D01*
X25526092Y-53586635D01*
X25679322Y-53650104D01*
X25708165Y-53662051D01*
X25708169Y-53662051D01*
X25708170Y-53662052D01*
X25901456Y-53700500D01*
X25901459Y-53700500D01*
X27098543Y-53700500D01*
X27228582Y-53674632D01*
X27291835Y-53662051D01*
X27473914Y-53586632D01*
X27637782Y-53477139D01*
X27777139Y-53337782D01*
X27886632Y-53173914D01*
X27886634Y-53173907D01*
X27889502Y-53168544D01*
X27891310Y-53169510D01*
X27929272Y-53122397D01*
X27995564Y-53100326D01*
X28063265Y-53117600D01*
X28110879Y-53168734D01*
X28112522Y-53172331D01*
X28113371Y-53173920D01*
X28222860Y-53337781D01*
X28222863Y-53337785D01*
X28362214Y-53477136D01*
X28362218Y-53477139D01*
X28526079Y-53586628D01*
X28526092Y-53586635D01*
X28679322Y-53650104D01*
X28708165Y-53662051D01*
X28708169Y-53662051D01*
X28708170Y-53662052D01*
X28901456Y-53700500D01*
X28901459Y-53700500D01*
X30098543Y-53700500D01*
X30228582Y-53674632D01*
X30291835Y-53662051D01*
X30473914Y-53586632D01*
X30637782Y-53477139D01*
X30777139Y-53337782D01*
X30886632Y-53173914D01*
X30962051Y-52991835D01*
X30974632Y-52928582D01*
X31000500Y-52798543D01*
X31999499Y-52798543D01*
X32037947Y-52991829D01*
X32037950Y-52991839D01*
X32113364Y-53173907D01*
X32113371Y-53173920D01*
X32222860Y-53337781D01*
X32222863Y-53337785D01*
X32362214Y-53477136D01*
X32362218Y-53477139D01*
X32526079Y-53586628D01*
X32526092Y-53586635D01*
X32679322Y-53650104D01*
X32708165Y-53662051D01*
X32708169Y-53662051D01*
X32708170Y-53662052D01*
X32901456Y-53700500D01*
X32901459Y-53700500D01*
X34098543Y-53700500D01*
X34228582Y-53674632D01*
X34291835Y-53662051D01*
X34473914Y-53586632D01*
X34637782Y-53477139D01*
X34777139Y-53337782D01*
X34886632Y-53173914D01*
X34962051Y-52991835D01*
X34974632Y-52928582D01*
X35000500Y-52798543D01*
X35000500Y-52601456D01*
X34962052Y-52408170D01*
X34962051Y-52408169D01*
X34962051Y-52408165D01*
X34962049Y-52408160D01*
X34886635Y-52226092D01*
X34886628Y-52226079D01*
X34777139Y-52062218D01*
X34777136Y-52062214D01*
X34637785Y-51922863D01*
X34637781Y-51922860D01*
X34473920Y-51813371D01*
X34473907Y-51813364D01*
X34291839Y-51737950D01*
X34291829Y-51737947D01*
X34098543Y-51699500D01*
X34098541Y-51699500D01*
X32901459Y-51699500D01*
X32901457Y-51699500D01*
X32708170Y-51737947D01*
X32708160Y-51737950D01*
X32526092Y-51813364D01*
X32526079Y-51813371D01*
X32362218Y-51922860D01*
X32362214Y-51922863D01*
X32222863Y-52062214D01*
X32222860Y-52062218D01*
X32113371Y-52226079D01*
X32113364Y-52226092D01*
X32037950Y-52408160D01*
X32037947Y-52408170D01*
X31999500Y-52601456D01*
X31999500Y-52601459D01*
X31999500Y-52798541D01*
X31999500Y-52798543D01*
X31999499Y-52798543D01*
X31000500Y-52798543D01*
X31000500Y-52601456D01*
X30962052Y-52408170D01*
X30962051Y-52408169D01*
X30962051Y-52408165D01*
X30962049Y-52408160D01*
X30886635Y-52226092D01*
X30886628Y-52226079D01*
X30777139Y-52062218D01*
X30777136Y-52062214D01*
X30637785Y-51922863D01*
X30637781Y-51922860D01*
X30473920Y-51813371D01*
X30473907Y-51813364D01*
X30291839Y-51737950D01*
X30291829Y-51737947D01*
X30098543Y-51699500D01*
X30098541Y-51699500D01*
X28901459Y-51699500D01*
X28901457Y-51699500D01*
X28708170Y-51737947D01*
X28708160Y-51737950D01*
X28526092Y-51813364D01*
X28526079Y-51813371D01*
X28362218Y-51922860D01*
X28362214Y-51922863D01*
X28222863Y-52062214D01*
X28222860Y-52062218D01*
X28113371Y-52226079D01*
X28110498Y-52231456D01*
X28108691Y-52230490D01*
X28070715Y-52277612D01*
X28004420Y-52299673D01*
X27936721Y-52282391D01*
X27889113Y-52231251D01*
X27887473Y-52227660D01*
X27886628Y-52226079D01*
X27777139Y-52062218D01*
X27777136Y-52062214D01*
X27637785Y-51922863D01*
X27637781Y-51922860D01*
X27473920Y-51813371D01*
X27473907Y-51813364D01*
X27291839Y-51737950D01*
X27291829Y-51737947D01*
X27098543Y-51699500D01*
X27098541Y-51699500D01*
X25901459Y-51699500D01*
X25901457Y-51699500D01*
X25708170Y-51737947D01*
X25708160Y-51737950D01*
X25526092Y-51813364D01*
X25526079Y-51813371D01*
X25362218Y-51922860D01*
X25362214Y-51922863D01*
X25222863Y-52062214D01*
X25222860Y-52062218D01*
X25113371Y-52226079D01*
X25113364Y-52226092D01*
X25037950Y-52408160D01*
X25037947Y-52408170D01*
X24999500Y-52601456D01*
X24999500Y-52601459D01*
X24999500Y-52798541D01*
X24999500Y-52798543D01*
X24999499Y-52798543D01*
X21000000Y-52798543D01*
X21000000Y-44411304D01*
X25599500Y-44411304D01*
X25599500Y-44588695D01*
X25634103Y-44762658D01*
X25634106Y-44762667D01*
X25701983Y-44926540D01*
X25701990Y-44926553D01*
X25800535Y-45074034D01*
X25800538Y-45074038D01*
X25925961Y-45199461D01*
X25925965Y-45199464D01*
X26073446Y-45298009D01*
X26073459Y-45298016D01*
X26196363Y-45348923D01*
X26237334Y-45365894D01*
X26237336Y-45365894D01*
X26237341Y-45365896D01*
X26411304Y-45400499D01*
X26411307Y-45400500D01*
X26411309Y-45400500D01*
X26588693Y-45400500D01*
X26588694Y-45400499D01*
X26646682Y-45388964D01*
X26762658Y-45365896D01*
X26762661Y-45365894D01*
X26762666Y-45365894D01*
X26926547Y-45298013D01*
X27074035Y-45199464D01*
X27111679Y-45161820D01*
X27173001Y-45128334D01*
X27199361Y-45125500D01*
X28505058Y-45125500D01*
X28572097Y-45145185D01*
X28617852Y-45197989D01*
X28626674Y-45225305D01*
X28634106Y-45262666D01*
X28634106Y-45262667D01*
X28701983Y-45426540D01*
X28701990Y-45426553D01*
X28800535Y-45574034D01*
X28800538Y-45574038D01*
X28925961Y-45699461D01*
X28925965Y-45699464D01*
X29073446Y-45798009D01*
X29073459Y-45798016D01*
X29196363Y-45848923D01*
X29237334Y-45865894D01*
X29237336Y-45865894D01*
X29237341Y-45865896D01*
X29411304Y-45900499D01*
X29411307Y-45900500D01*
X29411309Y-45900500D01*
X29588693Y-45900500D01*
X29588694Y-45900499D01*
X29646682Y-45888964D01*
X29762658Y-45865896D01*
X29762661Y-45865894D01*
X29762666Y-45865894D01*
X29926547Y-45798013D01*
X30074035Y-45699464D01*
X30111679Y-45661820D01*
X30173001Y-45628334D01*
X30199361Y-45625500D01*
X32505058Y-45625500D01*
X32572097Y-45645185D01*
X32617852Y-45697989D01*
X32626674Y-45725305D01*
X32634106Y-45762666D01*
X32634106Y-45762667D01*
X32701983Y-45926540D01*
X32701990Y-45926553D01*
X32800535Y-46074034D01*
X32800538Y-46074038D01*
X32925961Y-46199461D01*
X32925965Y-46199464D01*
X33073446Y-46298009D01*
X33073459Y-46298016D01*
X33184696Y-46344091D01*
X33237334Y-46365894D01*
X33237336Y-46365894D01*
X33237341Y-46365896D01*
X33411304Y-46400499D01*
X33411307Y-46400500D01*
X33411309Y-46400500D01*
X33588693Y-46400500D01*
X33588694Y-46400499D01*
X33657475Y-46386818D01*
X33762658Y-46365896D01*
X33762661Y-46365894D01*
X33762666Y-46365894D01*
X33926547Y-46298013D01*
X34074035Y-46199464D01*
X34111679Y-46161820D01*
X34173001Y-46128334D01*
X34199361Y-46125500D01*
X42000500Y-46125500D01*
X42067539Y-46145185D01*
X42113294Y-46197989D01*
X42124500Y-46249500D01*
X42124500Y-57300638D01*
X42104815Y-57367677D01*
X42088181Y-57388319D01*
X42050538Y-57425961D01*
X42050535Y-57425965D01*
X41951990Y-57573446D01*
X41951983Y-57573459D01*
X41884106Y-57737332D01*
X41884103Y-57737341D01*
X41849500Y-57911304D01*
X41849500Y-58088695D01*
X41884103Y-58262658D01*
X41884106Y-58262667D01*
X41951983Y-58426540D01*
X41951990Y-58426553D01*
X42050535Y-58574034D01*
X42050538Y-58574038D01*
X42175961Y-58699461D01*
X42175965Y-58699464D01*
X42323446Y-58798009D01*
X42323459Y-58798016D01*
X42446363Y-58848923D01*
X42487334Y-58865894D01*
X42487336Y-58865894D01*
X42487341Y-58865896D01*
X42661304Y-58900499D01*
X42661307Y-58900500D01*
X42661309Y-58900500D01*
X42838693Y-58900500D01*
X42838694Y-58900499D01*
X42896682Y-58888964D01*
X43012658Y-58865896D01*
X43012661Y-58865894D01*
X43012666Y-58865894D01*
X43176547Y-58798013D01*
X43324035Y-58699464D01*
X43449464Y-58574035D01*
X43548013Y-58426547D01*
X43615894Y-58262666D01*
X43616017Y-58262052D01*
X43650499Y-58088695D01*
X43650500Y-58088693D01*
X43650500Y-57911306D01*
X43650499Y-57911304D01*
X43615896Y-57737341D01*
X43615893Y-57737332D01*
X43548016Y-57573459D01*
X43548009Y-57573446D01*
X43449464Y-57425965D01*
X43449461Y-57425961D01*
X43411819Y-57388319D01*
X43378334Y-57326996D01*
X43375500Y-57300638D01*
X43375500Y-46249500D01*
X43395185Y-46182461D01*
X43447989Y-46136706D01*
X43499500Y-46125500D01*
X45430639Y-46125500D01*
X45497678Y-46145185D01*
X45518321Y-46161820D01*
X45555961Y-46199461D01*
X45555965Y-46199464D01*
X45703446Y-46298009D01*
X45703459Y-46298016D01*
X45814696Y-46344091D01*
X45867334Y-46365894D01*
X45867336Y-46365894D01*
X45867341Y-46365896D01*
X46041304Y-46400499D01*
X46041307Y-46400500D01*
X46041309Y-46400500D01*
X46218693Y-46400500D01*
X46218694Y-46400499D01*
X46287475Y-46386818D01*
X46392658Y-46365896D01*
X46392661Y-46365894D01*
X46392666Y-46365894D01*
X46453048Y-46340882D01*
X46522517Y-46333414D01*
X46584996Y-46364689D01*
X46620648Y-46424778D01*
X46624500Y-46455444D01*
X46624500Y-57300638D01*
X46604815Y-57367677D01*
X46588181Y-57388319D01*
X46550538Y-57425961D01*
X46550535Y-57425965D01*
X46451990Y-57573446D01*
X46451983Y-57573459D01*
X46384106Y-57737332D01*
X46384103Y-57737341D01*
X46349500Y-57911304D01*
X46349500Y-58088695D01*
X46384103Y-58262658D01*
X46384106Y-58262667D01*
X46451983Y-58426540D01*
X46451990Y-58426553D01*
X46550535Y-58574034D01*
X46550538Y-58574038D01*
X46675961Y-58699461D01*
X46675965Y-58699464D01*
X46823446Y-58798009D01*
X46823459Y-58798016D01*
X46946363Y-58848923D01*
X46987334Y-58865894D01*
X46987336Y-58865894D01*
X46987341Y-58865896D01*
X47161304Y-58900499D01*
X47161307Y-58900500D01*
X47161309Y-58900500D01*
X47338693Y-58900500D01*
X47338694Y-58900499D01*
X47396682Y-58888964D01*
X47512658Y-58865896D01*
X47512661Y-58865894D01*
X47512666Y-58865894D01*
X47676547Y-58798013D01*
X47824035Y-58699464D01*
X47949464Y-58574035D01*
X48048013Y-58426547D01*
X48115894Y-58262666D01*
X48116017Y-58262052D01*
X48150499Y-58088695D01*
X48150500Y-58088693D01*
X48150500Y-57911306D01*
X48150499Y-57911304D01*
X48115896Y-57737341D01*
X48115893Y-57737332D01*
X48048016Y-57573459D01*
X48048009Y-57573446D01*
X47949464Y-57425965D01*
X47949461Y-57425961D01*
X47911819Y-57388319D01*
X47878334Y-57326996D01*
X47875500Y-57300638D01*
X47875500Y-44154500D01*
X47895185Y-44087461D01*
X47947989Y-44041706D01*
X47999500Y-44030500D01*
X48088693Y-44030500D01*
X48182331Y-44011873D01*
X48225809Y-44003225D01*
X48274191Y-44003225D01*
X48306601Y-44009671D01*
X48411306Y-44030500D01*
X48411309Y-44030500D01*
X48588693Y-44030500D01*
X48588694Y-44030499D01*
X48646682Y-44018964D01*
X48762658Y-43995896D01*
X48762661Y-43995894D01*
X48762666Y-43995894D01*
X48926547Y-43928013D01*
X49074035Y-43829464D01*
X49199464Y-43704035D01*
X49298013Y-43556547D01*
X49365894Y-43392666D01*
X49400500Y-43218691D01*
X49400500Y-43041309D01*
X49400500Y-43041306D01*
X49400499Y-43041304D01*
X49365896Y-42867341D01*
X49365893Y-42867332D01*
X49336741Y-42796952D01*
X49329272Y-42727483D01*
X49360547Y-42665004D01*
X49420636Y-42629352D01*
X49451302Y-42625500D01*
X58250500Y-42625500D01*
X58317539Y-42645185D01*
X58363294Y-42697989D01*
X58374500Y-42749500D01*
X58374500Y-62841610D01*
X58398535Y-62962444D01*
X58398538Y-62962454D01*
X58445687Y-63076283D01*
X58445692Y-63076292D01*
X58514141Y-63178732D01*
X58514144Y-63178736D01*
X58601263Y-63265855D01*
X58601267Y-63265858D01*
X58703707Y-63334307D01*
X58703713Y-63334310D01*
X58703714Y-63334311D01*
X58817548Y-63381463D01*
X58938389Y-63405499D01*
X58938393Y-63405500D01*
X58938394Y-63405500D01*
X73727019Y-63405500D01*
X73794058Y-63425185D01*
X73837503Y-63473203D01*
X73844950Y-63487819D01*
X73969890Y-63659786D01*
X74120213Y-63810109D01*
X74292182Y-63935050D01*
X74300946Y-63939516D01*
X74351742Y-63987491D01*
X74368536Y-64055312D01*
X74345998Y-64121447D01*
X74300946Y-64160484D01*
X74292182Y-64164949D01*
X74120213Y-64289890D01*
X73969890Y-64440213D01*
X73844951Y-64612179D01*
X73748444Y-64801585D01*
X73682753Y-65003760D01*
X73649500Y-65213713D01*
X73649500Y-65426286D01*
X73682753Y-65636239D01*
X73748444Y-65838414D01*
X73844951Y-66027820D01*
X73969890Y-66199786D01*
X74120213Y-66350109D01*
X74292179Y-66475048D01*
X74292181Y-66475049D01*
X74292184Y-66475051D01*
X74481588Y-66571557D01*
X74683757Y-66637246D01*
X74893713Y-66670500D01*
X74893714Y-66670500D01*
X75106286Y-66670500D01*
X75106287Y-66670500D01*
X75316243Y-66637246D01*
X75518412Y-66571557D01*
X75707816Y-66475051D01*
X75729789Y-66459086D01*
X75879786Y-66350109D01*
X75879788Y-66350106D01*
X75879792Y-66350104D01*
X76030104Y-66199792D01*
X76030106Y-66199788D01*
X76030109Y-66199786D01*
X76155048Y-66027820D01*
X76155047Y-66027820D01*
X76155051Y-66027816D01*
X76251557Y-65838412D01*
X76317246Y-65636243D01*
X76350500Y-65426287D01*
X76350500Y-65213713D01*
X76317246Y-65003757D01*
X76251557Y-64801588D01*
X76155051Y-64612184D01*
X76155049Y-64612181D01*
X76155048Y-64612179D01*
X76030109Y-64440213D01*
X75879786Y-64289890D01*
X75707820Y-64164951D01*
X75707115Y-64164591D01*
X75699054Y-64160485D01*
X75648259Y-64112512D01*
X75631463Y-64044692D01*
X75653999Y-63978556D01*
X75699054Y-63939515D01*
X75707816Y-63935051D01*
X75729789Y-63919086D01*
X75879786Y-63810109D01*
X75879788Y-63810106D01*
X75879792Y-63810104D01*
X76030104Y-63659792D01*
X76030106Y-63659788D01*
X76030109Y-63659786D01*
X76155048Y-63487820D01*
X76155049Y-63487819D01*
X76155051Y-63487816D01*
X76251557Y-63298412D01*
X76317246Y-63096243D01*
X76350500Y-62886287D01*
X76350500Y-62673713D01*
X76317246Y-62463757D01*
X76251557Y-62261588D01*
X76155051Y-62072184D01*
X76155049Y-62072181D01*
X76155048Y-62072179D01*
X76030109Y-61900213D01*
X75879786Y-61749890D01*
X75707820Y-61624951D01*
X75707115Y-61624591D01*
X75699054Y-61620485D01*
X75648259Y-61572512D01*
X75631463Y-61504692D01*
X75653999Y-61438556D01*
X75699054Y-61399515D01*
X75707816Y-61395051D01*
X75729789Y-61379086D01*
X75879786Y-61270109D01*
X75879788Y-61270106D01*
X75879792Y-61270104D01*
X76030104Y-61119792D01*
X76030106Y-61119788D01*
X76030109Y-61119786D01*
X76155048Y-60947820D01*
X76155047Y-60947820D01*
X76155051Y-60947816D01*
X76251557Y-60758412D01*
X76317246Y-60556243D01*
X76350500Y-60346287D01*
X76350500Y-60133713D01*
X76317246Y-59923757D01*
X76251557Y-59721588D01*
X76155051Y-59532184D01*
X76155049Y-59532181D01*
X76155048Y-59532179D01*
X76030109Y-59360213D01*
X75879786Y-59209890D01*
X75707820Y-59084951D01*
X75707115Y-59084591D01*
X75699054Y-59080485D01*
X75648259Y-59032512D01*
X75631463Y-58964692D01*
X75653999Y-58898556D01*
X75699054Y-58859515D01*
X75707816Y-58855051D01*
X75729789Y-58839086D01*
X75879786Y-58730109D01*
X75879788Y-58730106D01*
X75879792Y-58730104D01*
X76030104Y-58579792D01*
X76030106Y-58579788D01*
X76030109Y-58579786D01*
X76155048Y-58407820D01*
X76155047Y-58407820D01*
X76155051Y-58407816D01*
X76251557Y-58218412D01*
X76317246Y-58016243D01*
X76350500Y-57806287D01*
X76350500Y-57593713D01*
X76317246Y-57383757D01*
X76251557Y-57181588D01*
X76155051Y-56992184D01*
X76155049Y-56992181D01*
X76155048Y-56992179D01*
X76030109Y-56820213D01*
X75879786Y-56669890D01*
X75707820Y-56544951D01*
X75707115Y-56544591D01*
X75699054Y-56540485D01*
X75648259Y-56492512D01*
X75631463Y-56424692D01*
X75653999Y-56358556D01*
X75699054Y-56319515D01*
X75707816Y-56315051D01*
X75729789Y-56299086D01*
X75879786Y-56190109D01*
X75879788Y-56190106D01*
X75879792Y-56190104D01*
X76030104Y-56039792D01*
X76030106Y-56039788D01*
X76030109Y-56039786D01*
X76155048Y-55867820D01*
X76155047Y-55867820D01*
X76155051Y-55867816D01*
X76251557Y-55678412D01*
X76317246Y-55476243D01*
X76350500Y-55266287D01*
X76350500Y-55053713D01*
X76317246Y-54843757D01*
X76251557Y-54641588D01*
X76155051Y-54452184D01*
X76155049Y-54452181D01*
X76155048Y-54452179D01*
X76030109Y-54280213D01*
X75879786Y-54129890D01*
X75707820Y-54004951D01*
X75707115Y-54004591D01*
X75699054Y-54000485D01*
X75648259Y-53952512D01*
X75631463Y-53884692D01*
X75653999Y-53818556D01*
X75699054Y-53779515D01*
X75707816Y-53775051D01*
X75729789Y-53759086D01*
X75879786Y-53650109D01*
X75879788Y-53650106D01*
X75879792Y-53650104D01*
X76030104Y-53499792D01*
X76030106Y-53499788D01*
X76030109Y-53499786D01*
X76155048Y-53327820D01*
X76155047Y-53327820D01*
X76155051Y-53327816D01*
X76251557Y-53138412D01*
X76317246Y-52936243D01*
X76350500Y-52726287D01*
X76350500Y-52513713D01*
X76317246Y-52303757D01*
X76251557Y-52101588D01*
X76155051Y-51912184D01*
X76155049Y-51912181D01*
X76155048Y-51912179D01*
X76030109Y-51740213D01*
X75879786Y-51589890D01*
X75707820Y-51464951D01*
X75707115Y-51464591D01*
X75699054Y-51460485D01*
X75648259Y-51412512D01*
X75631463Y-51344692D01*
X75653999Y-51278556D01*
X75699054Y-51239515D01*
X75707816Y-51235051D01*
X75729789Y-51219086D01*
X75879786Y-51110109D01*
X75879788Y-51110106D01*
X75879792Y-51110104D01*
X76030104Y-50959792D01*
X76030106Y-50959788D01*
X76030109Y-50959786D01*
X76155048Y-50787820D01*
X76155047Y-50787820D01*
X76155051Y-50787816D01*
X76251557Y-50598412D01*
X76317246Y-50396243D01*
X76350500Y-50186287D01*
X76350500Y-49973713D01*
X76317246Y-49763757D01*
X76251557Y-49561588D01*
X76155051Y-49372184D01*
X76155049Y-49372181D01*
X76155048Y-49372179D01*
X76030109Y-49200213D01*
X75879786Y-49049890D01*
X75707817Y-48924949D01*
X75698504Y-48920204D01*
X75647707Y-48872230D01*
X75630912Y-48804409D01*
X75653449Y-48738274D01*
X75698507Y-48699232D01*
X75707555Y-48694622D01*
X75761716Y-48655270D01*
X75761717Y-48655270D01*
X75129408Y-48022962D01*
X75192993Y-48005925D01*
X75307007Y-47940099D01*
X75400099Y-47847007D01*
X75465925Y-47732993D01*
X75482962Y-47669408D01*
X76115270Y-48301717D01*
X76115270Y-48301716D01*
X76154622Y-48247554D01*
X76251095Y-48058217D01*
X76316757Y-47856130D01*
X76316757Y-47856127D01*
X76350000Y-47646246D01*
X76350000Y-47433753D01*
X76316757Y-47223872D01*
X76316757Y-47223869D01*
X76251095Y-47021782D01*
X76154624Y-46832449D01*
X76115270Y-46778282D01*
X76115269Y-46778282D01*
X75482962Y-47410590D01*
X75465925Y-47347007D01*
X75400099Y-47232993D01*
X75307007Y-47139901D01*
X75192993Y-47074075D01*
X75129409Y-47057037D01*
X75799627Y-46386818D01*
X75860950Y-46353333D01*
X75887307Y-46350499D01*
X75897872Y-46350499D01*
X75957483Y-46344091D01*
X76092331Y-46293796D01*
X76207546Y-46207546D01*
X76293796Y-46092331D01*
X76344091Y-45957483D01*
X76350500Y-45897873D01*
X76350499Y-44102128D01*
X76344091Y-44042517D01*
X76336952Y-44023377D01*
X76293797Y-43907671D01*
X76293793Y-43907664D01*
X76207547Y-43792455D01*
X76207544Y-43792452D01*
X76092335Y-43706206D01*
X76092328Y-43706202D01*
X75957482Y-43655908D01*
X75957483Y-43655908D01*
X75897883Y-43649501D01*
X75897881Y-43649500D01*
X75897873Y-43649500D01*
X75897864Y-43649500D01*
X74102129Y-43649500D01*
X74102123Y-43649501D01*
X74042516Y-43655908D01*
X73907671Y-43706202D01*
X73907664Y-43706206D01*
X73792455Y-43792452D01*
X73792452Y-43792455D01*
X73706206Y-43907664D01*
X73706202Y-43907671D01*
X73655908Y-44042517D01*
X73649501Y-44102116D01*
X73649501Y-44102123D01*
X73649500Y-44102135D01*
X73649500Y-45897870D01*
X73649501Y-45897876D01*
X73655908Y-45957483D01*
X73706202Y-46092328D01*
X73706206Y-46092335D01*
X73792452Y-46207544D01*
X73792455Y-46207547D01*
X73907664Y-46293793D01*
X73907671Y-46293797D01*
X73918975Y-46298013D01*
X74042517Y-46344091D01*
X74102127Y-46350500D01*
X74112685Y-46350499D01*
X74179723Y-46370179D01*
X74200372Y-46386818D01*
X74870591Y-47057037D01*
X74807007Y-47074075D01*
X74692993Y-47139901D01*
X74599901Y-47232993D01*
X74534075Y-47347007D01*
X74517037Y-47410591D01*
X73884728Y-46778282D01*
X73884727Y-46778282D01*
X73845380Y-46832439D01*
X73748904Y-47021782D01*
X73683242Y-47223869D01*
X73683242Y-47223872D01*
X73650000Y-47433753D01*
X73650000Y-47646246D01*
X73683242Y-47856127D01*
X73683242Y-47856130D01*
X73748904Y-48058217D01*
X73845375Y-48247550D01*
X73884728Y-48301716D01*
X74517037Y-47669408D01*
X74534075Y-47732993D01*
X74599901Y-47847007D01*
X74692993Y-47940099D01*
X74807007Y-48005925D01*
X74870590Y-48022962D01*
X74238282Y-48655269D01*
X74238282Y-48655270D01*
X74292452Y-48694626D01*
X74292451Y-48694626D01*
X74301495Y-48699234D01*
X74352292Y-48747208D01*
X74369087Y-48815029D01*
X74346550Y-48881164D01*
X74301499Y-48920202D01*
X74292182Y-48924949D01*
X74120213Y-49049890D01*
X73969890Y-49200213D01*
X73844951Y-49372179D01*
X73748444Y-49561585D01*
X73682753Y-49763760D01*
X73649500Y-49973713D01*
X73649500Y-50186286D01*
X73682753Y-50396239D01*
X73748444Y-50598414D01*
X73844951Y-50787820D01*
X73969890Y-50959786D01*
X74120213Y-51110109D01*
X74292182Y-51235050D01*
X74300946Y-51239516D01*
X74351742Y-51287491D01*
X74368536Y-51355312D01*
X74345998Y-51421447D01*
X74300946Y-51460484D01*
X74292182Y-51464949D01*
X74120213Y-51589890D01*
X73969890Y-51740213D01*
X73844951Y-51912179D01*
X73748444Y-52101585D01*
X73682753Y-52303760D01*
X73666218Y-52408160D01*
X73649500Y-52513713D01*
X73649500Y-52726287D01*
X73682754Y-52936243D01*
X73743239Y-53122397D01*
X73748444Y-53138414D01*
X73844951Y-53327820D01*
X73969890Y-53499786D01*
X74120213Y-53650109D01*
X74292182Y-53775050D01*
X74300946Y-53779516D01*
X74351742Y-53827491D01*
X74368536Y-53895312D01*
X74345998Y-53961447D01*
X74300946Y-54000484D01*
X74292182Y-54004949D01*
X74120213Y-54129890D01*
X73969890Y-54280213D01*
X73844951Y-54452179D01*
X73748444Y-54641585D01*
X73682753Y-54843760D01*
X73671725Y-54913389D01*
X73649500Y-55053713D01*
X73649500Y-55266287D01*
X73682754Y-55476243D01*
X73715423Y-55576788D01*
X73748444Y-55678414D01*
X73844951Y-55867820D01*
X73969890Y-56039786D01*
X74120213Y-56190109D01*
X74292182Y-56315050D01*
X74300946Y-56319516D01*
X74351742Y-56367491D01*
X74368536Y-56435312D01*
X74345998Y-56501447D01*
X74300946Y-56540484D01*
X74292182Y-56544949D01*
X74120213Y-56669890D01*
X73969890Y-56820213D01*
X73844951Y-56992179D01*
X73748444Y-57181585D01*
X73748443Y-57181587D01*
X73748443Y-57181588D01*
X73715598Y-57282672D01*
X73682753Y-57383760D01*
X73652710Y-57573446D01*
X73649500Y-57593713D01*
X73649500Y-57806287D01*
X73682754Y-58016243D01*
X73706295Y-58088695D01*
X73748444Y-58218414D01*
X73844951Y-58407820D01*
X73969890Y-58579786D01*
X74120213Y-58730109D01*
X74292182Y-58855050D01*
X74300946Y-58859516D01*
X74351742Y-58907491D01*
X74368536Y-58975312D01*
X74345998Y-59041447D01*
X74300946Y-59080484D01*
X74292182Y-59084949D01*
X74120213Y-59209890D01*
X73969890Y-59360213D01*
X73844951Y-59532179D01*
X73748444Y-59721585D01*
X73682753Y-59923760D01*
X73649500Y-60133713D01*
X73649500Y-60346286D01*
X73682753Y-60556239D01*
X73748444Y-60758414D01*
X73844951Y-60947820D01*
X73969890Y-61119786D01*
X74120213Y-61270109D01*
X74292182Y-61395050D01*
X74300946Y-61399516D01*
X74351742Y-61447491D01*
X74368536Y-61515312D01*
X74345998Y-61581447D01*
X74300946Y-61620484D01*
X74292182Y-61624949D01*
X74120213Y-61749890D01*
X73969890Y-61900213D01*
X73844950Y-62072180D01*
X73837503Y-62086797D01*
X73789527Y-62137592D01*
X73727019Y-62154500D01*
X59749500Y-62154500D01*
X59682461Y-62134815D01*
X59636706Y-62082011D01*
X59625500Y-62030500D01*
X59625500Y-41938393D01*
X59625499Y-41938389D01*
X59601464Y-41817555D01*
X59601463Y-41817548D01*
X59554311Y-41703714D01*
X59554310Y-41703713D01*
X59554307Y-41703707D01*
X59485858Y-41601267D01*
X59485855Y-41601263D01*
X59398736Y-41514144D01*
X59398732Y-41514141D01*
X59296292Y-41445692D01*
X59296283Y-41445687D01*
X59182454Y-41398538D01*
X59182455Y-41398538D01*
X59182452Y-41398537D01*
X59182448Y-41398536D01*
X59182444Y-41398535D01*
X59061610Y-41374500D01*
X59061606Y-41374500D01*
X49207907Y-41374500D01*
X49140868Y-41354815D01*
X49095113Y-41302011D01*
X49093346Y-41297952D01*
X49054314Y-41203720D01*
X49054307Y-41203707D01*
X48985858Y-41101267D01*
X48985855Y-41101263D01*
X48898736Y-41014144D01*
X48898732Y-41014141D01*
X48796292Y-40945692D01*
X48796283Y-40945687D01*
X48682454Y-40898538D01*
X48682455Y-40898538D01*
X48682452Y-40898537D01*
X48682448Y-40898536D01*
X48682444Y-40898535D01*
X48561610Y-40874500D01*
X48561606Y-40874500D01*
X42811606Y-40874500D01*
X42688394Y-40874500D01*
X42688389Y-40874500D01*
X42567555Y-40898535D01*
X42567545Y-40898538D01*
X42453716Y-40945687D01*
X42453707Y-40945692D01*
X42351267Y-41014141D01*
X42351263Y-41014144D01*
X42264144Y-41101263D01*
X42264141Y-41101267D01*
X42195692Y-41203707D01*
X42195687Y-41203716D01*
X42148538Y-41317545D01*
X42148535Y-41317555D01*
X42124500Y-41438389D01*
X42124500Y-43750500D01*
X42104815Y-43817539D01*
X42052011Y-43863294D01*
X42000500Y-43874500D01*
X27199361Y-43874500D01*
X27132322Y-43854815D01*
X27111679Y-43838180D01*
X27074038Y-43800538D01*
X27074034Y-43800535D01*
X26926553Y-43701990D01*
X26926540Y-43701983D01*
X26762667Y-43634106D01*
X26762658Y-43634103D01*
X26588694Y-43599500D01*
X26588691Y-43599500D01*
X26411309Y-43599500D01*
X26411306Y-43599500D01*
X26237341Y-43634103D01*
X26237332Y-43634106D01*
X26073459Y-43701983D01*
X26073446Y-43701990D01*
X25925965Y-43800535D01*
X25925961Y-43800538D01*
X25800538Y-43925961D01*
X25800535Y-43925965D01*
X25701990Y-44073446D01*
X25701983Y-44073459D01*
X25634106Y-44237332D01*
X25634103Y-44237341D01*
X25599500Y-44411304D01*
X21000000Y-44411304D01*
X21000000Y-14624000D01*
X21019685Y-14556961D01*
X21072489Y-14511206D01*
X21124000Y-14500000D01*
X158876000Y-14500000D01*
X158943039Y-14519685D01*
G37*
%TD.AperFunction*%
%TD*%
M02*
