%TF.GenerationSoftware,KiCad,Pcbnew,10.0.3*%
%TF.CreationDate,2026-06-10T22:06:19-04:00*%
%TF.ProjectId,ECG-Biosensor-AD8232-final,4543472d-4269-46f7-9365-6e736f722d41,rev?*%
%TF.SameCoordinates,Original*%
%TF.FileFunction,Drillmap*%
%TF.FilePolarity,Positive*%
%FSLAX45Y45*%
G04 Gerber Fmt 4.5, Leading zero omitted, Abs format (unit mm)*
G04 Created by KiCad (PCBNEW 10.0.3) date 2026-06-10 22:06:19*
%MOMM*%
%LPD*%
G01*
G04 APERTURE LIST*
%ADD10C,0.050000*%
%ADD11C,0.200000*%
G04 APERTURE END LIST*
D10*
X2000000Y-1350000D02*
X16000000Y-1350000D01*
X2000000Y-7000000D02*
X2000000Y-1350000D01*
X16000000Y-1350000D02*
X16000000Y-7000000D01*
X16000000Y-7000000D02*
X2000000Y-7000000D01*
D11*
X2258277Y-7313984D02*
X2258277Y-7113984D01*
X2258277Y-7113984D02*
X2305896Y-7113984D01*
X2305896Y-7113984D02*
X2334467Y-7123508D01*
X2334467Y-7123508D02*
X2353515Y-7142555D01*
X2353515Y-7142555D02*
X2363039Y-7161603D01*
X2363039Y-7161603D02*
X2372563Y-7199698D01*
X2372563Y-7199698D02*
X2372563Y-7228269D01*
X2372563Y-7228269D02*
X2363039Y-7266365D01*
X2363039Y-7266365D02*
X2353515Y-7285412D01*
X2353515Y-7285412D02*
X2334467Y-7304460D01*
X2334467Y-7304460D02*
X2305896Y-7313984D01*
X2305896Y-7313984D02*
X2258277Y-7313984D01*
X2458277Y-7313984D02*
X2458277Y-7180650D01*
X2458277Y-7218746D02*
X2467801Y-7199698D01*
X2467801Y-7199698D02*
X2477324Y-7190174D01*
X2477324Y-7190174D02*
X2496372Y-7180650D01*
X2496372Y-7180650D02*
X2515420Y-7180650D01*
X2582086Y-7313984D02*
X2582086Y-7180650D01*
X2582086Y-7113984D02*
X2572563Y-7123508D01*
X2572563Y-7123508D02*
X2582086Y-7133031D01*
X2582086Y-7133031D02*
X2591610Y-7123508D01*
X2591610Y-7123508D02*
X2582086Y-7113984D01*
X2582086Y-7113984D02*
X2582086Y-7133031D01*
X2705896Y-7313984D02*
X2686848Y-7304460D01*
X2686848Y-7304460D02*
X2677324Y-7285412D01*
X2677324Y-7285412D02*
X2677324Y-7113984D01*
X2810658Y-7313984D02*
X2791610Y-7304460D01*
X2791610Y-7304460D02*
X2782086Y-7285412D01*
X2782086Y-7285412D02*
X2782086Y-7113984D01*
X3039229Y-7313984D02*
X3039229Y-7113984D01*
X3039229Y-7113984D02*
X3105896Y-7256841D01*
X3105896Y-7256841D02*
X3172562Y-7113984D01*
X3172562Y-7113984D02*
X3172562Y-7313984D01*
X3353515Y-7313984D02*
X3353515Y-7209222D01*
X3353515Y-7209222D02*
X3343991Y-7190174D01*
X3343991Y-7190174D02*
X3324943Y-7180650D01*
X3324943Y-7180650D02*
X3286848Y-7180650D01*
X3286848Y-7180650D02*
X3267801Y-7190174D01*
X3353515Y-7304460D02*
X3334467Y-7313984D01*
X3334467Y-7313984D02*
X3286848Y-7313984D01*
X3286848Y-7313984D02*
X3267801Y-7304460D01*
X3267801Y-7304460D02*
X3258277Y-7285412D01*
X3258277Y-7285412D02*
X3258277Y-7266365D01*
X3258277Y-7266365D02*
X3267801Y-7247317D01*
X3267801Y-7247317D02*
X3286848Y-7237793D01*
X3286848Y-7237793D02*
X3334467Y-7237793D01*
X3334467Y-7237793D02*
X3353515Y-7228269D01*
X3448753Y-7180650D02*
X3448753Y-7380650D01*
X3448753Y-7190174D02*
X3467801Y-7180650D01*
X3467801Y-7180650D02*
X3505896Y-7180650D01*
X3505896Y-7180650D02*
X3524943Y-7190174D01*
X3524943Y-7190174D02*
X3534467Y-7199698D01*
X3534467Y-7199698D02*
X3543991Y-7218746D01*
X3543991Y-7218746D02*
X3543991Y-7275888D01*
X3543991Y-7275888D02*
X3534467Y-7294936D01*
X3534467Y-7294936D02*
X3524943Y-7304460D01*
X3524943Y-7304460D02*
X3505896Y-7313984D01*
X3505896Y-7313984D02*
X3467801Y-7313984D01*
X3467801Y-7313984D02*
X3448753Y-7304460D01*
X3629705Y-7294936D02*
X3639229Y-7304460D01*
X3639229Y-7304460D02*
X3629705Y-7313984D01*
X3629705Y-7313984D02*
X3620182Y-7304460D01*
X3620182Y-7304460D02*
X3629705Y-7294936D01*
X3629705Y-7294936D02*
X3629705Y-7313984D01*
X3629705Y-7190174D02*
X3639229Y-7199698D01*
X3639229Y-7199698D02*
X3629705Y-7209222D01*
X3629705Y-7209222D02*
X3620182Y-7199698D01*
X3620182Y-7199698D02*
X3629705Y-7190174D01*
X3629705Y-7190174D02*
X3629705Y-7209222D01*
M02*
